<?xml version="1.0" encoding="UTF-8"?>
<!DOCTYPE svg PUBLIC "-//W3C//DTD SVG 1.1//EN" "http://www.w3.org/Graphics/SVG/1.1/DTD/svg11.dtd">
<svg xmlns="http://www.w3.org/2000/svg" version="1.1" width="320px" height="480px" style="shape-rendering:geometricPrecision; text-rendering:geometricPrecision; image-rendering:optimizeQuality; fill-rule:evenodd; clip-rule:evenodd" xmlns:xlink="http://www.w3.org/1999/xlink">
<g><path style="opacity:1" fill="#fde441" d="M -0.5,-0.5 C 9.5,-0.5 19.5,-0.5 29.5,-0.5C 26.225,0.317303 23.8917,2.3173 22.5,5.5C 22.968,7.13382 23.968,8.30049 25.5,9C 27.6099,8.65342 29.6099,8.82008 31.5,9.5C 29.5867,11.2911 27.92,13.2911 26.5,15.5C 20.01,20.9248 13.6767,26.5914 7.5,32.5C 6.68677,31.3473 5.68677,31.3473 4.5,32.5C 4.2148,29.2504 2.54813,27.2504 -0.5,26.5C -0.5,17.5 -0.5,8.5 -0.5,-0.5 Z"/></g>
<g><path style="opacity:1" fill="#fee444" d="M 29.5,-0.5 C 33.1667,-0.5 36.8333,-0.5 40.5,-0.5C 38.2054,3.46159 35.2054,6.79493 31.5,9.5C 29.6099,8.82008 27.6099,8.65342 25.5,9C 23.968,8.30049 22.968,7.13382 22.5,5.5C 23.8917,2.3173 26.225,0.317303 29.5,-0.5 Z"/></g>
<g><path style="opacity:1" fill="#fdd12e" d="M 42.5,-0.5 C 45.8333,-0.5 49.1667,-0.5 52.5,-0.5C 51.7747,3.36723 53.1081,6.0339 56.5,7.5C 57.6473,7.18223 58.4806,6.51556 59,5.5C 59.4955,3.5273 59.6621,1.5273 59.5,-0.5C 62.1667,-0.5 64.8333,-0.5 67.5,-0.5C 66.9454,6.0655 67.7787,12.3988 70,18.5C 70.7247,19.0585 71.5581,19.3918 72.5,19.5C 74.4002,18.5529 75.7335,17.0529 76.5,15C 76.23,9.86659 75.8967,4.69992 75.5,-0.5C 77.5,-0.5 79.5,-0.5 81.5,-0.5C 82.4483,5.97227 84.615,11.9723 88,17.5C 90.4461,11.7228 92.2794,5.72284 93.5,-0.5C 94.1667,-0.5 94.8333,-0.5 95.5,-0.5C 95.5,4.83333 95.5,10.1667 95.5,15.5C 97.1667,15.5 98.8333,15.5 100.5,15.5C 100.5,20.8333 100.5,26.1667 100.5,31.5C 102.167,31.5 103.833,31.5 105.5,31.5C 105.5,36.8333 105.5,42.1667 105.5,47.5C 107.5,47.5 109.5,47.5 111.5,47.5C 112.143,55.2736 113.31,55.2736 115,47.5C 115.65,50.9652 117.15,53.9652 119.5,56.5C 116.61,58.7951 115.777,61.7951 117,65.5C 120.608,68.0644 123.774,71.0644 126.5,74.5C 127.466,72.604 127.799,70.604 127.5,68.5C 124.767,68.8039 123.101,67.6372 122.5,65C 124.504,62.1512 125.504,58.9846 125.5,55.5C 127.5,55.5 129.5,55.5 131.5,55.5C 131.5,58.1667 131.5,60.8333 131.5,63.5C 134.167,63.5 136.833,63.5 139.5,63.5C 139.5,60.8333 139.5,58.1667 139.5,55.5C 140.833,55.5 142.167,55.5 143.5,55.5C 144.032,59.0304 144.532,62.3638 145,65.5C 149.333,69.5 153.667,73.5 158,77.5C 160.113,79.2711 159.947,80.7711 157.5,82C 158.094,82.4643 158.761,82.631 159.5,82.5C 159.5,82.8333 159.5,83.1667 159.5,83.5C 158.5,83.8333 157.833,84.5 157.5,85.5C 155.041,87.7792 152.374,89.9458 149.5,92C 148.177,92.8159 147.511,93.9826 147.5,95.5C 144.5,95.1667 143.167,96.5 143.5,99.5C 133.761,107.708 124.427,116.374 115.5,125.5C 114.524,124.185 113.524,122.852 112.5,121.5C 112.709,120.914 113.043,120.414 113.5,120C 111.167,119.333 108.833,119.333 106.5,120C 108.53,121.896 110.197,124.063 111.5,126.5C 111,126.833 110.5,127.167 110,127.5C 106.827,125.508 104.327,122.842 102.5,119.5C 100.477,120.041 98.477,119.541 96.5,118C 95.8266,115.141 94.9932,112.308 94,109.5C 83.9873,99.9871 74.154,90.3204 64.5,80.5C 59.8804,79.5067 55.2137,79.1734 50.5,79.5C 50.6495,78.448 50.4828,77.448 50,76.5C 48.4941,74.8258 46.6607,73.8258 44.5,73.5C 42.1837,72.578 40.517,70.9113 39.5,68.5C 38.032,67.2209 37.3653,65.5542 37.5,63.5C 41.0993,63.7381 41.4327,62.7381 38.5,60.5C 36.7415,62.7377 34.4082,63.7377 31.5,63.5C 31.5,60.8333 31.5,58.1667 31.5,55.5C 24.5,54.1667 17.5,54.1667 10.5,55.5C 10.5,58.1667 10.5,60.8333 10.5,63.5C 8.5,63.5 6.5,63.5 4.5,63.5C 4.5,60.8333 4.5,58.1667 4.5,55.5C 2.83333,55.5 1.16667,55.5 -0.5,55.5C -0.5,51.1667 -0.5,46.8333 -0.5,42.5C 3.3553,38.8098 7.3553,35.3098 11.5,32C 14.2846,31.4415 16.6179,30.1082 18.5,28C 16.0684,26.9125 16.4017,26.4125 19.5,26.5C 20.7575,23.9587 22.9241,21.292 26,18.5C 26.4828,17.552 26.6495,16.552 26.5,15.5C 28.1667,15.5 29.8333,15.5 31.5,15.5C 32.2444,12.0632 34.2444,9.39651 37.5,7.5C 39.4908,5.01492 41.1574,2.34825 42.5,-0.5 Z"/></g>
<g><path style="opacity:1" fill="#fdd132" d="M 52.5,-0.5 C 54.8333,-0.5 57.1667,-0.5 59.5,-0.5C 59.6621,1.5273 59.4955,3.5273 59,5.5C 58.4806,6.51556 57.6473,7.18223 56.5,7.5C 53.1081,6.0339 51.7747,3.36723 52.5,-0.5 Z"/></g>
<g><path style="opacity:1" fill="#fed233" d="M 67.5,-0.5 C 70.1667,-0.5 72.8333,-0.5 75.5,-0.5C 75.8967,4.69992 76.23,9.86659 76.5,15C 75.7335,17.0529 74.4002,18.5529 72.5,19.5C 71.5581,19.3918 70.7247,19.0585 70,18.5C 67.7787,12.3988 66.9454,6.0655 67.5,-0.5 Z"/></g>
<g><path style="opacity:1" fill="#fed132" d="M 81.5,-0.5 C 85.5,-0.5 89.5,-0.5 93.5,-0.5C 92.2794,5.72284 90.4461,11.7228 88,17.5C 84.615,11.9723 82.4483,5.97227 81.5,-0.5 Z"/></g>
<g><path style="opacity:1" fill="#fdd334" d="M 95.5,-0.5 C 108.833,-0.5 122.167,-0.5 135.5,-0.5C 135.5,4.83333 135.5,10.1667 135.5,15.5C 138.833,15.5 142.167,15.5 145.5,15.5C 145.318,13.3254 144.651,11.3254 143.5,9.5C 143.833,8.83333 144.167,8.16667 144.5,7.5C 145.528,9.36146 147.028,10.6948 149,11.5C 149.655,13.6284 150.489,15.6284 151.5,17.5C 154.165,24.8309 156.832,32.1642 159.5,39.5C 160.5,39.5 161.5,39.5 162.5,39.5C 164.578,43.3276 166.412,47.3276 168,51.5C 171.287,55.2333 174.12,59.2333 176.5,63.5C 175.766,64.7079 175.433,66.0413 175.5,67.5C 173.167,67.8333 171.833,69.1667 171.5,71.5C 166.895,74.4357 162.895,78.1024 159.5,82.5C 158.761,82.631 158.094,82.4643 157.5,82C 159.947,80.7711 160.113,79.2711 158,77.5C 153.667,73.5 149.333,69.5 145,65.5C 144.532,62.3638 144.032,59.0304 143.5,55.5C 142.167,55.5 140.833,55.5 139.5,55.5C 139.5,58.1667 139.5,60.8333 139.5,63.5C 136.833,63.5 134.167,63.5 131.5,63.5C 131.5,60.8333 131.5,58.1667 131.5,55.5C 129.5,55.5 127.5,55.5 125.5,55.5C 125.504,58.9846 124.504,62.1512 122.5,65C 123.101,67.6372 124.767,68.8039 127.5,68.5C 127.799,70.604 127.466,72.604 126.5,74.5C 123.774,71.0644 120.608,68.0644 117,65.5C 115.777,61.7951 116.61,58.7951 119.5,56.5C 117.15,53.9652 115.65,50.9652 115,47.5C 113.31,55.2736 112.143,55.2736 111.5,47.5C 109.5,47.5 107.5,47.5 105.5,47.5C 105.5,42.1667 105.5,36.8333 105.5,31.5C 103.833,31.5 102.167,31.5 100.5,31.5C 100.5,26.1667 100.5,20.8333 100.5,15.5C 98.8333,15.5 97.1667,15.5 95.5,15.5C 95.5,10.1667 95.5,4.83333 95.5,-0.5 Z"/></g>
<g><path style="opacity:1" fill="#fcd436" d="M 135.5,-0.5 C 141.833,-0.5 148.167,-0.5 154.5,-0.5C 155.486,3.11282 156.319,6.77949 157,10.5C 159.043,14.6916 160.877,19.0249 162.5,23.5C 163.5,23.5 164.5,23.5 165.5,23.5C 165.694,26.3297 166.361,28.9963 167.5,31.5C 165.833,31.5 164.167,31.5 162.5,31.5C 162.657,30.1266 162.49,28.7932 162,27.5C 158.513,23.8578 155.513,19.8578 153,15.5C 152.722,16.4158 152.222,17.0825 151.5,17.5C 150.489,15.6284 149.655,13.6284 149,11.5C 147.028,10.6948 145.528,9.36146 144.5,7.5C 144.167,8.16667 143.833,8.83333 143.5,9.5C 144.651,11.3254 145.318,13.3254 145.5,15.5C 142.167,15.5 138.833,15.5 135.5,15.5C 135.5,10.1667 135.5,4.83333 135.5,-0.5 Z"/></g>
<g><path style="opacity:1" fill="#fdd537" d="M 154.5,-0.5 C 156.5,-0.5 158.5,-0.5 160.5,-0.5C 160.369,0.238911 160.536,0.905578 161,1.5C 165.333,5.5 169.667,9.5 174,13.5C 174.973,15.3921 175.64,17.3921 176,19.5C 181.167,22 185,25.8333 187.5,31C 188.793,31.49 190.127,31.6567 191.5,31.5C 191.5,33.8333 191.5,36.1667 191.5,38.5C 194.682,38.584 197.015,39.9173 198.5,42.5C 197.4,43.6049 196.733,44.9382 196.5,46.5C 195.527,46.9867 194.527,47.4867 193.5,48C 189.155,53.5748 184.489,58.7415 179.5,63.5C 178.5,63.5 177.5,63.5 176.5,63.5C 174.12,59.2333 171.287,55.2333 168,51.5C 166.412,47.3276 164.578,43.3276 162.5,39.5C 161.5,39.5 160.5,39.5 159.5,39.5C 156.832,32.1642 154.165,24.8309 151.5,17.5C 152.222,17.0825 152.722,16.4158 153,15.5C 155.513,19.8578 158.513,23.8578 162,27.5C 162.49,28.7932 162.657,30.1266 162.5,31.5C 164.167,31.5 165.833,31.5 167.5,31.5C 166.361,28.9963 165.694,26.3297 165.5,23.5C 164.5,23.5 163.5,23.5 162.5,23.5C 160.877,19.0249 159.043,14.6916 157,10.5C 156.319,6.77949 155.486,3.11282 154.5,-0.5 Z"/></g>
<g><path style="opacity:1" fill="#fdd73b" d="M 160.5,-0.5 C 172.5,-0.5 184.5,-0.5 196.5,-0.5C 198.21,4.59143 200.21,9.59143 202.5,14.5C 204.766,15.3142 207.1,15.8142 209.5,16C 207.75,17.7542 207.083,19.9208 207.5,22.5C 207.201,24.604 207.534,26.604 208.5,28.5C 211.936,24.9426 215.603,21.6092 219.5,18.5C 220.183,18.8627 220.85,19.1961 221.5,19.5C 220.218,22.6168 218.051,24.9501 215,26.5C 213.906,28.0779 213.072,29.7446 212.5,31.5C 211.448,31.3505 210.448,31.5172 209.5,32C 205.801,35.507 202.134,39.007 198.5,42.5C 197.015,39.9173 194.682,38.584 191.5,38.5C 191.5,36.1667 191.5,33.8333 191.5,31.5C 190.127,31.6567 188.793,31.49 187.5,31C 185,25.8333 181.167,22 176,19.5C 175.64,17.3921 174.973,15.3921 174,13.5C 169.667,9.5 165.333,5.5 161,1.5C 160.536,0.905578 160.369,0.238911 160.5,-0.5 Z"/></g>
<g><path style="opacity:1" fill="#fdd940" d="M 196.5,-0.5 C 199.5,-0.5 202.5,-0.5 205.5,-0.5C 207.046,1.88248 207.713,4.54915 207.5,7.5C 208.5,7.5 209.5,7.5 210.5,7.5C 211.089,10.5039 212.089,13.3373 213.5,16C 212.312,18.7943 210.312,20.961 207.5,22.5C 207.083,19.9208 207.75,17.7542 209.5,16C 207.1,15.8142 204.766,15.3142 202.5,14.5C 200.21,9.59143 198.21,4.59143 196.5,-0.5 Z"/></g>
<g><path style="opacity:1" fill="#fddc43" d="M 205.5,-0.5 C 217.833,-0.5 230.167,-0.5 242.5,-0.5C 235.933,6.64548 228.933,13.3121 221.5,19.5C 220.85,19.1961 220.183,18.8627 219.5,18.5C 215.603,21.6092 211.936,24.9426 208.5,28.5C 207.534,26.604 207.201,24.604 207.5,22.5C 210.312,20.961 212.312,18.7943 213.5,16C 212.089,13.3373 211.089,10.5039 210.5,7.5C 209.5,7.5 208.5,7.5 207.5,7.5C 207.713,4.54915 207.046,1.88248 205.5,-0.5 Z"/></g>
<g><path style="opacity:1" fill="#fcc633" d="M 243.5,-0.5 C 247.167,-0.5 250.833,-0.5 254.5,-0.5C 255.129,5.33265 255.962,10.9993 257,16.5C 256.667,16.8333 256.333,17.1667 256,17.5C 254.392,13.9573 252.058,10.9573 249,8.5C 248.13,9.1079 247.63,9.94123 247.5,11C 248.148,12.4397 248.481,13.9397 248.5,15.5C 245.482,15.6646 242.482,15.498 239.5,15C 248.423,13.7127 248.423,11.8794 239.5,9.5C 239.389,8.88258 239.056,8.38258 238.5,8C 241.091,5.64251 242.758,2.80918 243.5,-0.5 Z"/></g>
<g><path style="opacity:1" fill="#fdc933" d="M 254.5,-0.5 C 258.167,-0.5 261.833,-0.5 265.5,-0.5C 265.5,18.179 266,36.8457 267,55.5C 267.428,50.502 268.261,50.3353 269.5,55C 268.67,56.7467 267.67,58.4134 266.5,60C 267.022,60.9503 267.689,61.7836 268.5,62.5C 271.5,63.1667 274.5,63.8333 277.5,64.5C 277.306,66.2633 277.306,68.0967 277.5,70C 280.874,71.2274 284.208,71.3941 287.5,70.5C 287.5,71.5 287.5,72.5 287.5,73.5C 298.008,75.819 308.675,76.819 319.5,76.5C 319.5,93.5 319.5,110.5 319.5,127.5C 318.504,127.586 317.671,127.252 317,126.5C 314.913,127.834 313.413,129.667 312.5,132C 310.579,132.36 308.912,133.194 307.5,134.5C 306.358,133.174 305.024,132.174 303.5,131.5C 303.36,129.876 304.027,128.71 305.5,128C 303.621,127.04 301.621,126.54 299.5,126.5C 296.151,122.034 294.817,117.034 295.5,111.5C 291.336,111.126 287.336,111.126 283.5,111.5C 283.042,108.606 283.709,106.106 285.5,104C 283.679,101.544 283.012,98.7107 283.5,95.5C 281.396,95.7989 279.396,95.4656 277.5,94.5C 276.412,92.0352 274.579,90.3686 272,89.5C 271.457,86.1322 271.624,82.7989 272.5,79.5C 270.801,79.6602 269.134,79.4935 267.5,79C 265.031,73.5937 261.031,69.7604 255.5,67.5C 255.5,66.1667 255.5,64.8333 255.5,63.5C 254.325,63.719 253.325,63.3857 252.5,62.5C 251.833,60.5 251.167,58.5 250.5,56.5C 249.675,55.6143 248.675,55.281 247.5,55.5C 245.467,46.7274 242.8,38.0607 239.5,29.5C 239.833,28.5 240.167,27.5 240.5,26.5C 241.617,29.415 243.617,31.415 246.5,32.5C 248.02,34.6621 249.02,36.9954 249.5,39.5C 250.833,39.5 252.167,39.5 253.5,39.5C 254.428,42.1296 255.428,44.7963 256.5,47.5C 256.833,46.1667 257.167,44.8333 257.5,43.5C 253.68,34.9223 251.18,25.9223 250,16.5C 249.617,15.944 249.117,15.6107 248.5,15.5C 248.481,13.9397 248.148,12.4397 247.5,11C 247.63,9.94123 248.13,9.1079 249,8.5C 252.058,10.9573 254.392,13.9573 256,17.5C 256.333,17.1667 256.667,16.8333 257,16.5C 255.962,10.9993 255.129,5.33265 254.5,-0.5 Z"/></g>
<g><path style="opacity:1" fill="#fdd340" d="M 266.5,-0.5 C 270.833,-0.5 275.167,-0.5 279.5,-0.5C 279.775,1.75828 280.775,2.09162 282.5,0.5C 283.5,1 284.5,1.5 285.5,2C 282.833,3.66667 282.833,5.33333 285.5,7C 287.134,7.49351 288.801,7.66018 290.5,7.5C 290.28,10.4005 290.946,13.0671 292.5,15.5C 296.105,15.4451 299.771,15.7784 303.5,16.5C 300.914,17.48 298.247,17.8134 295.5,17.5C 295.185,19.2259 295.019,20.8925 295,22.5C 300.667,21.8333 306.333,21.1667 312,20.5C 313.979,22.5655 315.812,24.7321 317.5,27C 310.558,30.9476 311.225,32.4476 319.5,31.5C 319.5,37.8333 319.5,44.1667 319.5,50.5C 317.443,48.144 314.776,47.144 311.5,47.5C 311.813,44.7531 311.48,42.0865 310.5,39.5C 309.611,42.2787 308.444,44.9454 307,47.5C 304.648,45.326 303.481,42.6593 303.5,39.5C 299.107,39.5432 298.774,39.0432 302.5,38C 299.965,37.0718 298.965,35.2385 299.5,32.5C 297.549,32.2267 296.049,32.8934 295,34.5C 294.517,33.552 294.351,32.552 294.5,31.5C 293.5,31.5 292.5,31.5 291.5,31.5C 292.244,34.9496 290.91,36.6162 287.5,36.5C 287.5,34.8333 287.5,33.1667 287.5,31.5C 290.685,31.2776 291.685,29.7776 290.5,27C 284.175,26.5005 277.842,26.3338 271.5,26.5C 271.5,25.5 271.5,24.5 271.5,23.5C 272.978,23.762 274.311,23.4287 275.5,22.5C 274.349,21.269 273.183,21.269 272,22.5C 271.667,20.1667 271.333,17.8333 271,15.5C 270.667,16.5 270.333,17.5 270,18.5C 269.633,12.7964 268.966,7.12976 268,1.5C 267.667,1.83333 267.333,2.16667 267,2.5C 266.517,1.55198 266.351,0.551975 266.5,-0.5 Z"/></g>
<g><path style="opacity:1" fill="#fed543" d="M 279.5,-0.5 C 289.833,-0.5 300.167,-0.5 310.5,-0.5C 311.362,4.69809 314.362,8.03142 319.5,9.5C 319.5,16.8333 319.5,24.1667 319.5,31.5C 311.225,32.4476 310.558,30.9476 317.5,27C 315.812,24.7321 313.979,22.5655 312,20.5C 306.333,21.1667 300.667,21.8333 295,22.5C 295.019,20.8925 295.185,19.2259 295.5,17.5C 298.247,17.8134 300.914,17.48 303.5,16.5C 299.771,15.7784 296.105,15.4451 292.5,15.5C 290.946,13.0671 290.28,10.4005 290.5,7.5C 288.801,7.66018 287.134,7.49351 285.5,7C 282.833,5.33333 282.833,3.66667 285.5,2C 284.5,1.5 283.5,1 282.5,0.5C 280.775,2.09162 279.775,1.75828 279.5,-0.5 Z"/></g>
<g><path style="opacity:1" fill="#fcd645" d="M 310.5,-0.5 C 313.5,-0.5 316.5,-0.5 319.5,-0.5C 319.5,2.83333 319.5,6.16667 319.5,9.5C 314.362,8.03142 311.362,4.69809 310.5,-0.5 Z"/></g>
<g><path style="opacity:1" fill="#fad533" d="M 40.5,-0.5 C 41.1667,-0.5 41.8333,-0.5 42.5,-0.5C 41.1574,2.34825 39.4908,5.01492 37.5,7.5C 34.2444,9.39651 32.2444,12.0632 31.5,15.5C 29.8333,15.5 28.1667,15.5 26.5,15.5C 27.92,13.2911 29.5867,11.2911 31.5,9.5C 35.2054,6.79493 38.2054,3.46159 40.5,-0.5 Z"/></g>
<g><path style="opacity:1" fill="#fdd03b" d="M 265.5,-0.5 C 265.833,-0.5 266.167,-0.5 266.5,-0.5C 266.351,0.551975 266.517,1.55198 267,2.5C 267.333,2.16667 267.667,1.83333 268,1.5C 268.966,7.12976 269.633,12.7964 270,18.5C 270.333,17.5 270.667,16.5 271,15.5C 271.333,17.8333 271.667,20.1667 272,22.5C 273.183,21.269 274.349,21.269 275.5,22.5C 274.311,23.4287 272.978,23.762 271.5,23.5C 271.5,24.5 271.5,25.5 271.5,26.5C 277.842,26.3338 284.175,26.5005 290.5,27C 291.685,29.7776 290.685,31.2776 287.5,31.5C 287.5,33.1667 287.5,34.8333 287.5,36.5C 290.91,36.6162 292.244,34.9496 291.5,31.5C 292.5,31.5 293.5,31.5 294.5,31.5C 294.351,32.552 294.517,33.552 295,34.5C 296.049,32.8934 297.549,32.2267 299.5,32.5C 298.965,35.2385 299.965,37.0718 302.5,38C 298.774,39.0432 299.107,39.5432 303.5,39.5C 303.481,42.6593 304.648,45.326 307,47.5C 308.444,44.9454 309.611,42.2787 310.5,39.5C 311.48,42.0865 311.813,44.7531 311.5,47.5C 314.776,47.144 317.443,48.144 319.5,50.5C 319.5,59.1667 319.5,67.8333 319.5,76.5C 308.675,76.819 298.008,75.819 287.5,73.5C 287.5,72.5 287.5,71.5 287.5,70.5C 284.208,71.3941 280.874,71.2274 277.5,70C 277.306,68.0967 277.306,66.2633 277.5,64.5C 274.5,63.8333 271.5,63.1667 268.5,62.5C 267.689,61.7836 267.022,60.9503 266.5,60C 267.67,58.4134 268.67,56.7467 269.5,55C 268.261,50.3353 267.428,50.502 267,55.5C 266,36.8457 265.5,18.179 265.5,-0.5 Z"/></g>
<g><path style="opacity:1" fill="#fcc52d" d="M 239.5,9.5 C 248.423,11.8794 248.423,13.7127 239.5,15C 242.482,15.498 245.482,15.6646 248.5,15.5C 249.117,15.6107 249.617,15.944 250,16.5C 251.18,25.9223 253.68,34.9223 257.5,43.5C 257.167,44.8333 256.833,46.1667 256.5,47.5C 255.428,44.7963 254.428,42.1296 253.5,39.5C 252.167,39.5 250.833,39.5 249.5,39.5C 249.02,36.9954 248.02,34.6621 246.5,32.5C 243.617,31.415 241.617,29.415 240.5,26.5C 240.167,27.5 239.833,28.5 239.5,29.5C 242.8,38.0607 245.467,46.7274 247.5,55.5C 248.675,55.281 249.675,55.6143 250.5,56.5C 251.167,58.5 251.833,60.5 252.5,62.5C 253.325,63.3857 254.325,63.719 255.5,63.5C 255.5,64.8333 255.5,66.1667 255.5,67.5C 255.5,68.8333 255.5,70.1667 255.5,71.5C 256.675,71.281 257.675,71.6143 258.5,72.5C 258.88,75.5835 260.214,78.0835 262.5,80C 261.672,80.9147 260.672,81.5814 259.5,82C 260.749,83.8241 261.915,83.6574 263,81.5C 263.492,82.549 263.326,83.549 262.5,84.5C 264.748,86.7374 266.081,89.4041 266.5,92.5C 268.942,92.1192 269.609,92.7859 268.5,94.5C 270.278,95.7258 271.278,97.3925 271.5,99.5C 267.247,96.8633 263.581,93.5299 260.5,89.5C 259.618,90.7598 258.618,91.9264 257.5,93C 258.449,93.6172 259.282,93.4506 260,92.5C 263.44,95.8161 266.606,98.6495 269.5,101C 268.833,101.667 268.167,102.333 267.5,103C 270.166,106.325 272.833,109.658 275.5,113C 278.091,117.743 280.424,122.576 282.5,127.5C 284.592,127.561 286.092,128.561 287,130.5C 288.218,134.53 290.052,138.196 292.5,141.5C 295.833,139.167 299.167,136.833 302.5,134.5C 303.386,133.675 303.719,132.675 303.5,131.5C 305.024,132.174 306.358,133.174 307.5,134.5C 308.912,133.194 310.579,132.36 312.5,132C 313.413,129.667 314.913,127.834 317,126.5C 317.671,127.252 318.504,127.586 319.5,127.5C 319.5,144.167 319.5,160.833 319.5,177.5C 316.833,177.5 314.167,177.5 311.5,177.5C 310.976,173.995 309.976,170.661 308.5,167.5C 304.25,165.212 300.25,165.879 296.5,169.5C 295.808,168.975 295.308,168.308 295,167.5C 294.51,168.793 294.343,170.127 294.5,171.5C 286.947,169.884 279.28,169.217 271.5,169.5C 271.5,170.833 271.5,172.167 271.5,173.5C 269.5,172.833 267.5,172.167 265.5,171.5C 266.833,170.067 268.333,168.733 270,167.5C 270.333,167.833 270.667,168.167 271,168.5C 271.218,165.574 271.718,162.74 272.5,160C 274.81,159.503 277.143,159.337 279.5,159.5C 279.916,154.246 279.916,148.913 279.5,143.5C 275.5,143.5 271.5,143.5 267.5,143.5C 267.5,138.167 267.5,132.833 267.5,127.5C 263.5,127.5 259.5,127.5 255.5,127.5C 255.5,122.167 255.5,116.833 255.5,111.5C 253.712,111.785 252.045,111.452 250.5,110.5C 248.5,105.833 246.5,101.167 244.5,96.5C 242.955,95.5481 241.288,95.2148 239.5,95.5C 239.662,93.4727 239.495,91.4727 239,89.5C 234.136,87.8093 231.303,84.476 230.5,79.5C 228.167,79.5 225.833,79.5 223.5,79.5C 223.5,74.1667 223.5,68.8333 223.5,63.5C 221.167,63.5 218.833,63.5 216.5,63.5C 215.697,58.524 212.864,55.1907 208,53.5C 207.808,51.4233 207.308,49.4233 206.5,47.5C 204.297,47.4134 202.13,47.4134 200,47.5C 199.283,46.9558 198.783,46.2891 198.5,45.5C 201.352,41.4385 204.852,38.1051 209,35.5C 209.333,35.8333 209.667,36.1667 210,36.5C 211.438,35.0997 212.271,33.433 212.5,31.5C 214.641,29.8894 216.974,28.3894 219.5,27C 220.337,25.9887 220.67,24.8221 220.5,23.5C 224.892,22.6408 228.225,20.3074 230.5,16.5C 232.813,15.7267 235.146,15.0601 237.5,14.5C 238.95,13.1502 239.617,11.4835 239.5,9.5 Z"/></g>
<g><path style="opacity:1" fill="#fac831" d="M 242.5,-0.5 C 242.833,-0.5 243.167,-0.5 243.5,-0.5C 242.758,2.80918 241.091,5.64251 238.5,8C 239.056,8.38258 239.389,8.88258 239.5,9.5C 239.617,11.4835 238.95,13.1502 237.5,14.5C 235.146,15.0601 232.813,15.7267 230.5,16.5C 228.225,20.3074 224.892,22.6408 220.5,23.5C 220.67,24.8221 220.337,25.9887 219.5,27C 216.974,28.3894 214.641,29.8894 212.5,31.5C 213.072,29.7446 213.906,28.0779 215,26.5C 218.051,24.9501 220.218,22.6168 221.5,19.5C 228.933,13.3121 235.933,6.64548 242.5,-0.5 Z"/></g>
<g><path style="opacity:1" fill="#fee23b" d="M -0.5,26.5 C 2.54813,27.2504 4.2148,29.2504 4.5,32.5C 5.68677,31.3473 6.68677,31.3473 7.5,32.5C 5.18775,35.4789 2.52108,38.1456 -0.5,40.5C -0.5,35.8333 -0.5,31.1667 -0.5,26.5 Z"/></g>
<g><path style="opacity:1" fill="#fbd732" d="M 26.5,15.5 C 26.6495,16.552 26.4828,17.552 26,18.5C 22.9241,21.292 20.7575,23.9587 19.5,26.5C 16.4017,26.4125 16.0684,26.9125 18.5,28C 16.6179,30.1082 14.2846,31.4415 11.5,32C 7.3553,35.3098 3.3553,38.8098 -0.5,42.5C -0.5,41.8333 -0.5,41.1667 -0.5,40.5C 2.52108,38.1456 5.18775,35.4789 7.5,32.5C 13.6767,26.5914 20.01,20.9248 26.5,15.5 Z"/></g>
<g><path style="opacity:1" fill="#faca30" d="M 212.5,31.5 C 212.271,33.433 211.438,35.0997 210,36.5C 209.667,36.1667 209.333,35.8333 209,35.5C 204.852,38.1051 201.352,41.4385 198.5,45.5C 197.833,45.8333 197.167,46.1667 196.5,46.5C 196.733,44.9382 197.4,43.6049 198.5,42.5C 202.134,39.007 205.801,35.507 209.5,32C 210.448,31.5172 211.448,31.3505 212.5,31.5 Z"/></g>
<g><path style="opacity:1" fill="#fcc529" d="M 198.5,45.5 C 198.783,46.2891 199.283,46.9558 200,47.5C 202.13,47.4134 204.297,47.4134 206.5,47.5C 207.308,49.4233 207.808,51.4233 208,53.5C 212.864,55.1907 215.697,58.524 216.5,63.5C 218.833,63.5 221.167,63.5 223.5,63.5C 223.5,68.8333 223.5,74.1667 223.5,79.5C 225.833,79.5 228.167,79.5 230.5,79.5C 231.303,84.476 234.136,87.8093 239,89.5C 239.495,91.4727 239.662,93.4727 239.5,95.5C 241.288,95.2148 242.955,95.5481 244.5,96.5C 246.5,101.167 248.5,105.833 250.5,110.5C 252.045,111.452 253.712,111.785 255.5,111.5C 255.5,116.833 255.5,122.167 255.5,127.5C 259.5,127.5 263.5,127.5 267.5,127.5C 267.5,132.833 267.5,138.167 267.5,143.5C 271.5,143.5 275.5,143.5 279.5,143.5C 279.916,148.913 279.916,154.246 279.5,159.5C 277.143,159.337 274.81,159.503 272.5,160C 271.718,162.74 271.218,165.574 271,168.5C 270.667,168.167 270.333,167.833 270,167.5C 268.333,168.733 266.833,170.067 265.5,171.5C 260.155,178.841 254.155,185.507 247.5,191.5C 242.84,195.158 238.174,198.824 233.5,202.5C 231.395,204.592 229.728,206.925 228.5,209.5C 226.81,211.519 225.144,213.519 223.5,215.5C 222.833,215.5 222.167,215.5 221.5,215.5C 222.639,212.996 223.306,210.33 223.5,207.5C 217.797,208.443 212.797,207.11 208.5,203.5C 204.408,204.353 201.075,203.02 198.5,199.5C 197.52,202.086 197.187,204.753 197.5,207.5C 195.5,207.5 193.5,207.5 191.5,207.5C 191.662,205.473 191.495,203.473 191,201.5C 186.136,199.809 183.303,196.476 182.5,191.5C 180.167,191.5 177.833,191.5 175.5,191.5C 175.5,187.833 175.5,184.167 175.5,180.5C 170.537,179.504 165.537,179.337 160.5,180C 163.359,182.552 165.026,185.719 165.5,189.5C 161.128,189.365 156.961,188.365 153,186.5C 150.359,187.713 149.192,186.713 149.5,183.5C 152.833,183.5 156.167,183.5 159.5,183.5C 159.5,180.833 159.5,178.167 159.5,175.5C 158.167,175.5 156.833,175.5 155.5,175.5C 155.5,170.167 155.5,164.833 155.5,159.5C 156.833,159.5 158.167,159.5 159.5,159.5C 159.5,162.167 159.5,164.833 159.5,167.5C 164.833,167.5 170.167,167.5 175.5,167.5C 175.5,164.833 175.5,162.167 175.5,159.5C 171.5,159.5 167.5,159.5 163.5,159.5C 163.5,154.167 163.5,148.833 163.5,143.5C 162.127,143.657 160.793,143.49 159.5,143C 154.167,138 148.833,133 143.5,128C 142.207,127.51 140.873,127.343 139.5,127.5C 139.5,122.167 139.5,116.833 139.5,111.5C 140.833,111.5 142.167,111.5 143.5,111.5C 143.5,112.833 143.5,114.167 143.5,115.5C 148.833,115.5 154.167,115.5 159.5,115.5C 159.5,114.167 159.5,112.833 159.5,111.5C 157.167,111.5 154.833,111.5 152.5,111.5C 151.868,106.695 149.201,103.528 144.5,102C 143.748,101.329 143.414,100.496 143.5,99.5C 143.167,96.5 144.5,95.1667 147.5,95.5C 152.133,93.5074 155.466,90.1741 157.5,85.5C 157.833,84.5 158.5,83.8333 159.5,83.5C 160.239,83.631 160.906,83.4643 161.5,83C 164.75,78.9289 168.083,75.0956 171.5,71.5C 171.833,69.1667 173.167,67.8333 175.5,67.5C 178.5,67.8333 179.833,66.5 179.5,63.5C 184.489,58.7415 189.155,53.5748 193.5,48C 194.527,47.4867 195.527,46.9867 196.5,46.5C 197.167,46.1667 197.833,45.8333 198.5,45.5 Z"/></g>
<g><path style="opacity:1" fill="#fdd028" d="M 39.5,68.5 C 38.7784,68.9175 38.2784,69.5842 38,70.5C 36.8869,69.2889 35.7202,69.2889 34.5,70.5C 32.0897,73.9209 30.5897,77.5876 30,81.5C 31.2978,83.2652 32.4645,85.0986 33.5,87C 32.2619,89.545 30.9286,92.045 29.5,94.5C 28.675,95.3857 27.675,95.719 26.5,95.5C 25.9084,98.1272 25.5751,100.794 25.5,103.5C 26.5,103.5 27.5,103.5 28.5,103.5C 28.6726,106.179 29.6726,108.513 31.5,110.5C 29.0509,113.761 26.3842,116.761 23.5,119.5C 20.892,116.943 18.392,114.277 16,111.5C 15.3893,115.272 14.3893,115.272 13,111.5C 10.8331,121.651 7.99982,121.984 4.5,112.5C 2.95467,111.548 1.28801,111.215 -0.5,111.5C -0.5,92.8333 -0.5,74.1667 -0.5,55.5C 1.16667,55.5 2.83333,55.5 4.5,55.5C 4.5,58.1667 4.5,60.8333 4.5,63.5C 6.5,63.5 8.5,63.5 10.5,63.5C 10.5,60.8333 10.5,58.1667 10.5,55.5C 17.5,54.1667 24.5,54.1667 31.5,55.5C 31.5,58.1667 31.5,60.8333 31.5,63.5C 34.4082,63.7377 36.7415,62.7377 38.5,60.5C 41.4327,62.7381 41.0993,63.7381 37.5,63.5C 37.3653,65.5542 38.032,67.2209 39.5,68.5 Z"/></g>
<g><path style="opacity:1" fill="#fcc42c" d="M 191.5,63.5 C 192.833,63.5 194.167,63.5 195.5,63.5C 195.167,66.5 196.5,67.8333 199.5,67.5C 201.572,73.0971 204.739,78.0971 209,82.5C 210.009,84.0249 210.509,85.6916 210.5,87.5C 213.745,88.7445 216.078,91.0779 217.5,94.5C 218.325,95.3857 219.325,95.719 220.5,95.5C 220.491,97.3084 220.991,98.9751 222,100.5C 229.032,108.835 234.865,117.835 239.5,127.5C 240.675,127.281 241.675,127.614 242.5,128.5C 243.167,130.5 243.833,132.5 244.5,134.5C 245.325,135.386 246.325,135.719 247.5,135.5C 248.101,138.549 248.601,141.549 249,144.5C 248.667,144.833 248.333,145.167 248,145.5C 245.544,143.679 242.711,143.012 239.5,143.5C 239.5,139.833 239.5,136.167 239.5,132.5C 235.404,132.637 232.071,131.137 229.5,128C 230.448,127.517 231.448,127.351 232.5,127.5C 231.697,122.524 228.864,119.191 224,117.5C 223.505,115.527 223.338,113.527 223.5,111.5C 221.712,111.785 220.045,111.452 218.5,110.5C 216.5,105.833 214.5,101.167 212.5,96.5C 210.955,95.5481 209.288,95.2148 207.5,95.5C 207.662,93.4727 207.495,91.4727 207,89.5C 202.136,87.8093 199.303,84.476 198.5,79.5C 196.167,79.5 193.833,79.5 191.5,79.5C 191.5,74.1667 191.5,68.8333 191.5,63.5 Z"/></g>
<g><path style="opacity:1" fill="#fac92c" d="M 176.5,63.5 C 177.5,63.5 178.5,63.5 179.5,63.5C 179.833,66.5 178.5,67.8333 175.5,67.5C 175.433,66.0413 175.766,64.7079 176.5,63.5 Z"/></g>
<g><path style="opacity:1" fill="#fccf37" d="M 270.5,66.5 C 271.461,68.2646 271.795,70.2646 271.5,72.5C 270.5,72.5 269.5,72.5 268.5,72.5C 268.253,70.1417 268.919,68.1417 270.5,66.5 Z"/></g>
<g><path style="opacity:1" fill="#fdc72f" d="M 255.5,67.5 C 261.031,69.7604 265.031,73.5937 267.5,79C 269.134,79.4935 270.801,79.6602 272.5,79.5C 271.624,82.7989 271.457,86.1322 272,89.5C 274.579,90.3686 276.412,92.0352 277.5,94.5C 279.396,95.4656 281.396,95.7989 283.5,95.5C 283.012,98.7107 283.679,101.544 285.5,104C 283.709,106.106 283.042,108.606 283.5,111.5C 282.761,111.631 282.094,111.464 281.5,111C 277.906,107.25 274.573,103.417 271.5,99.5C 271.278,97.3925 270.278,95.7258 268.5,94.5C 269.609,92.7859 268.942,92.1192 266.5,92.5C 266.081,89.4041 264.748,86.7374 262.5,84.5C 263.326,83.549 263.492,82.549 263,81.5C 261.915,83.6574 260.749,83.8241 259.5,82C 260.672,81.5814 261.672,80.9147 262.5,80C 260.214,78.0835 258.88,75.5835 258.5,72.5C 257.675,71.6143 256.675,71.281 255.5,71.5C 255.5,70.1667 255.5,68.8333 255.5,67.5 Z"/></g>
<g><path style="opacity:1" fill="#fccc26" d="M 39.5,68.5 C 40.517,70.9113 42.1837,72.578 44.5,73.5C 45.6805,75.6929 46.6805,78.0262 47.5,80.5C 50.4362,81.1151 53.1029,82.2817 55.5,84C 68.725,97.3924 82.0583,110.559 95.5,123.5C 96.325,124.386 97.325,124.719 98.5,124.5C 98.5,125.5 98.5,126.5 98.5,127.5C 95.6444,126.955 92.6444,127.122 89.5,128C 87.1969,133.306 83.3636,134.806 78,132.5C 73.5374,134.959 68.8707,136.959 64,138.5C 61.5,138 59,137.5 56.5,137C 55.6198,135.644 55.2865,134.144 55.5,132.5C 58.1667,132.5 60.8333,132.5 63.5,132.5C 63.4399,128.515 65.4399,126.848 69.5,127.5C 70.3747,122.342 68.3747,119.342 63.5,118.5C 63.5,116.167 63.5,113.833 63.5,111.5C 61.1667,111.5 58.8333,111.5 56.5,111.5C 55.697,106.524 52.8636,103.191 48,101.5C 47.6667,99.5 47.3333,97.5 47,95.5C 43.0121,99.3219 39.1788,103.322 35.5,107.5C 34.5713,108.689 34.238,110.022 34.5,111.5C 35.675,111.281 36.675,111.614 37.5,112.5C 38.7422,114.733 40.0755,116.899 41.5,119C 42.448,119.483 43.448,119.649 44.5,119.5C 44.6726,125.173 42.0059,128.507 36.5,129.5C 31.7079,127.076 27.3745,123.743 23.5,119.5C 26.3842,116.761 29.0509,113.761 31.5,110.5C 29.6726,108.513 28.6726,106.179 28.5,103.5C 27.5,103.5 26.5,103.5 25.5,103.5C 25.5751,100.794 25.9084,98.1272 26.5,95.5C 27.675,95.719 28.675,95.3857 29.5,94.5C 30.9286,92.045 32.2619,89.545 33.5,87C 32.4645,85.0986 31.2978,83.2652 30,81.5C 30.5897,77.5876 32.0897,73.9209 34.5,70.5C 35.7202,69.2889 36.8869,69.2889 38,70.5C 38.2784,69.5842 38.7784,68.9175 39.5,68.5 Z"/></g>
<g><path style="opacity:1" fill="#fdd029" d="M 44.5,73.5 C 46.6607,73.8258 48.4941,74.8258 50,76.5C 50.4828,77.448 50.6495,78.448 50.5,79.5C 55.2137,79.1734 59.8804,79.5067 64.5,80.5C 74.154,90.3204 83.9873,99.9871 94,109.5C 94.9932,112.308 95.8266,115.141 96.5,118C 98.477,119.541 100.477,120.041 102.5,119.5C 104.327,122.842 106.827,125.508 110,127.5C 110.5,127.167 111,126.833 111.5,126.5C 110.197,124.063 108.53,121.896 106.5,120C 108.833,119.333 111.167,119.333 113.5,120C 113.043,120.414 112.709,120.914 112.5,121.5C 113.524,122.852 114.524,124.185 115.5,125.5C 113.442,128.256 110.942,130.59 108,132.5C 104.242,131.707 101.076,130.041 98.5,127.5C 98.5,126.5 98.5,125.5 98.5,124.5C 97.325,124.719 96.325,124.386 95.5,123.5C 82.0583,110.559 68.725,97.3924 55.5,84C 53.1029,82.2817 50.4362,81.1151 47.5,80.5C 46.6805,78.0262 45.6805,75.6929 44.5,73.5 Z"/></g>
<g><path style="opacity:1" fill="#fbca2c" d="M 171.5,71.5 C 168.083,75.0956 164.75,78.9289 161.5,83C 160.906,83.4643 160.239,83.631 159.5,83.5C 159.5,83.1667 159.5,82.8333 159.5,82.5C 162.895,78.1024 166.895,74.4357 171.5,71.5 Z"/></g>
<g><path style="opacity:1" fill="#fac929" d="M 157.5,85.5 C 155.466,90.1741 152.133,93.5074 147.5,95.5C 147.511,93.9826 148.177,92.8159 149.5,92C 152.374,89.9458 155.041,87.7792 157.5,85.5 Z"/></g>
<g><path style="opacity:1" fill="#fcca22" d="M 98.5,127.5 C 100.506,130.839 103.173,133.506 106.5,135.5C 108.383,135.124 109.883,134.124 111,132.5C 111.499,136.152 111.665,139.818 111.5,143.5C 114.833,143.5 118.167,143.5 121.5,143.5C 121.5,148.833 121.5,154.167 121.5,159.5C 123.5,159.5 125.5,159.5 127.5,159.5C 127.5,164.833 127.5,170.167 127.5,175.5C 129.833,175.5 132.167,175.5 134.5,175.5C 134.652,179.141 136.318,181.807 139.5,183.5C 143.095,184.85 144.428,187.517 143.5,191.5C 145.167,191.5 146.833,191.5 148.5,191.5C 148.504,193.842 149.337,195.842 151,197.5C 151.498,200.817 151.665,204.15 151.5,207.5C 158.353,207.541 161.019,211.041 159.5,218C 159.333,220.5 159.167,223 159,225.5C 154.861,224.17 151.028,222.17 147.5,219.5C 146.167,220.5 144.833,221.5 143.5,222.5C 144.5,223.167 145.5,223.833 146.5,224.5C 147.968,228.424 149.635,232.091 151.5,235.5C 148.813,235.664 146.146,235.497 143.5,235C 139.401,232.91 135.067,231.744 130.5,231.5C 131.167,234.167 131.833,236.833 132.5,239.5C 134.592,239.561 136.092,240.561 137,242.5C 138.803,246.744 140.303,251.078 141.5,255.5C 137.445,255.176 133.445,255.509 129.5,256.5C 133.502,260.84 136.169,265.84 137.5,271.5C 138.5,271.5 139.5,271.5 140.5,271.5C 140.232,274.119 140.565,276.619 141.5,279C 139.251,279.863 137.418,279.363 136,277.5C 135.833,278.167 135.667,278.833 135.5,279.5C 137.988,283.652 140.654,287.652 143.5,291.5C 143.5,292.833 143.5,294.167 143.5,295.5C 145.606,297.719 146.606,300.385 146.5,303.5C 144.473,303.662 142.473,303.495 140.5,303C 139.529,301.519 138.196,300.685 136.5,300.5C 134.464,297.306 131.631,294.973 128,293.5C 127.5,286.174 127.334,278.841 127.5,271.5C 124.833,271.5 122.167,271.5 119.5,271.5C 119.5,266.167 119.5,260.833 119.5,255.5C 116.428,255.817 113.428,255.484 110.5,254.5C 106,250.167 101.5,245.833 97,241.5C 96.8119,239.939 97.6453,239.272 99.5,239.5C 99.5,234.167 99.5,228.833 99.5,223.5C 98.1667,223.5 96.8333,223.5 95.5,223.5C 95.6621,221.473 95.4955,219.473 95,217.5C 90.1364,215.809 87.303,212.476 86.5,207.5C 83.4281,207.183 80.4281,207.516 77.5,208.5C 78.9215,211.922 81.2549,214.255 84.5,215.5C 86.7939,220.62 89.4606,225.62 92.5,230.5C 88.2172,231.492 83.8839,231.826 79.5,231.5C 79.5,230.5 79.5,229.5 79.5,228.5C 76.2893,228.012 73.456,228.679 71,230.5C 70.0691,228.541 69.2357,226.541 68.5,224.5C 66.9547,223.548 65.288,223.215 63.5,223.5C 63.6621,221.473 63.4955,219.473 63,217.5C 61.3333,216.5 59.6667,215.5 58,214.5C 55.1826,216.825 52.0159,218.492 48.5,219.5C 52.6943,222.418 55.0276,226.418 55.5,231.5C 56.5,231.5 57.5,231.5 58.5,231.5C 58.6261,234.468 60.1261,236.468 63,237.5C 64.1069,240.871 63.1069,243.204 60,244.5C 57.4727,240.808 54.4727,237.475 51,234.5C 50.5172,233.552 50.3505,232.552 50.5,231.5C 49.5,231.5 48.5,231.5 47.5,231.5C 47.5,228.833 47.5,226.167 47.5,223.5C 45.088,223.669 42.9214,223.003 41,221.5C 38.0647,223.192 34.8981,223.858 31.5,223.5C 30.5,223.5 29.5,223.5 28.5,223.5C 28.506,220.175 27.006,217.841 24,216.5C 22.5584,213.95 21.3917,211.284 20.5,208.5C 18.9547,207.548 17.288,207.215 15.5,207.5C 16.2997,205.318 17.7997,203.651 20,202.5C 20.4828,201.552 20.6495,200.552 20.5,199.5C 22.7604,198.861 24.7604,197.694 26.5,196C 28.0368,194.89 28.7035,193.39 28.5,191.5C 25.2549,190.255 22.9215,187.922 21.5,184.5C 20.675,183.614 19.675,183.281 18.5,183.5C 18.7135,181.856 18.3802,180.356 17.5,179C 21.1391,177.364 24.1391,175.03 26.5,172C 25.596,167.889 25.2627,163.722 25.5,159.5C 29.5634,160.109 32.73,158.775 35,155.5C 35.4922,154.451 35.3256,153.451 34.5,152.5C 36.1932,151.772 37.6932,150.772 39,149.5C 39.1629,147.324 39.9963,145.491 41.5,144C 39.8934,142.951 39.2267,141.451 39.5,139.5C 36.5,139.833 35.1667,138.5 35.5,135.5C 34.448,135.649 33.448,135.483 32.5,135C 34.4388,133.568 35.7721,131.735 36.5,129.5C 42.0059,128.507 44.6726,125.173 44.5,119.5C 43.448,119.649 42.448,119.483 41.5,119C 40.0755,116.899 38.7422,114.733 37.5,112.5C 36.675,111.614 35.675,111.281 34.5,111.5C 34.238,110.022 34.5713,108.689 35.5,107.5C 39.1788,103.322 43.0121,99.3219 47,95.5C 47.3333,97.5 47.6667,99.5 48,101.5C 52.8636,103.191 55.697,106.524 56.5,111.5C 58.8333,111.5 61.1667,111.5 63.5,111.5C 63.5,113.833 63.5,116.167 63.5,118.5C 68.3747,119.342 70.3747,122.342 69.5,127.5C 65.4399,126.848 63.4399,128.515 63.5,132.5C 60.8333,132.5 58.1667,132.5 55.5,132.5C 55.2865,134.144 55.6198,135.644 56.5,137C 59,137.5 61.5,138 64,138.5C 68.8707,136.959 73.5374,134.959 78,132.5C 83.3636,134.806 87.1969,133.306 89.5,128C 92.6444,127.122 95.6444,126.955 98.5,127.5 Z"/></g>
<g><path style="opacity:1" fill="#fac12a" d="M 271.5,99.5 C 274.573,103.417 277.906,107.25 281.5,111C 282.094,111.464 282.761,111.631 283.5,111.5C 287.453,116.257 291.62,120.924 296,125.5C 298.106,128.118 300.606,130.118 303.5,131.5C 303.719,132.675 303.386,133.675 302.5,134.5C 299.167,136.833 295.833,139.167 292.5,141.5C 290.052,138.196 288.218,134.53 287,130.5C 286.092,128.561 284.592,127.561 282.5,127.5C 280.424,122.576 278.091,117.743 275.5,113C 272.833,109.658 270.166,106.325 267.5,103C 268.167,102.333 268.833,101.667 269.5,101C 266.606,98.6495 263.44,95.8161 260,92.5C 259.282,93.4506 258.449,93.6172 257.5,93C 258.618,91.9264 259.618,90.7598 260.5,89.5C 263.581,93.5299 267.247,96.8633 271.5,99.5 Z"/></g>
<g><path style="opacity:1" fill="#fdcf22" d="M -0.5,111.5 C 1.28801,111.215 2.95467,111.548 4.5,112.5C 7.99982,121.984 10.8331,121.651 13,111.5C 14.3893,115.272 15.3893,115.272 16,111.5C 18.392,114.277 20.892,116.943 23.5,119.5C 27.3745,123.743 31.7079,127.076 36.5,129.5C 35.7721,131.735 34.4388,133.568 32.5,135C 33.448,135.483 34.448,135.649 35.5,135.5C 35.1667,138.5 36.5,139.833 39.5,139.5C 39.2267,141.451 39.8934,142.951 41.5,144C 39.9963,145.491 39.1629,147.324 39,149.5C 37.6932,150.772 36.1932,151.772 34.5,152.5C 35.3256,153.451 35.4922,154.451 35,155.5C 32.73,158.775 29.5634,160.109 25.5,159.5C 25.2627,163.722 25.596,167.889 26.5,172C 24.1391,175.03 21.1391,177.364 17.5,179C 18.3802,180.356 18.7135,181.856 18.5,183.5C 19.675,183.281 20.675,183.614 21.5,184.5C 22.9215,187.922 25.2549,190.255 28.5,191.5C 28.7035,193.39 28.0368,194.89 26.5,196C 24.7604,197.694 22.7604,198.861 20.5,199.5C 20.6495,200.552 20.4828,201.552 20,202.5C 17.7997,203.651 16.2997,205.318 15.5,207.5C 14.1667,207.5 12.8333,207.5 11.5,207.5C 11.5,202.167 11.5,196.833 11.5,191.5C 12.8333,191.5 14.1667,191.5 15.5,191.5C 16.226,187.244 14.5594,184.577 10.5,183.5C 6.72429,184.555 3.05763,185.889 -0.5,187.5C -0.5,162.167 -0.5,136.833 -0.5,111.5 Z"/></g>
<g><path style="opacity:1" fill="#fcc826" d="M 143.5,99.5 C 143.414,100.496 143.748,101.329 144.5,102C 149.201,103.528 151.868,106.695 152.5,111.5C 154.833,111.5 157.167,111.5 159.5,111.5C 159.5,112.833 159.5,114.167 159.5,115.5C 154.167,115.5 148.833,115.5 143.5,115.5C 143.5,114.167 143.5,112.833 143.5,111.5C 142.167,111.5 140.833,111.5 139.5,111.5C 139.5,116.833 139.5,122.167 139.5,127.5C 140.873,127.343 142.207,127.51 143.5,128C 148.833,133 154.167,138 159.5,143C 160.793,143.49 162.127,143.657 163.5,143.5C 163.5,148.833 163.5,154.167 163.5,159.5C 167.5,159.5 171.5,159.5 175.5,159.5C 175.5,162.167 175.5,164.833 175.5,167.5C 170.167,167.5 164.833,167.5 159.5,167.5C 159.5,164.833 159.5,162.167 159.5,159.5C 158.167,159.5 156.833,159.5 155.5,159.5C 155.5,164.833 155.5,170.167 155.5,175.5C 156.833,175.5 158.167,175.5 159.5,175.5C 159.5,178.167 159.5,180.833 159.5,183.5C 156.167,183.5 152.833,183.5 149.5,183.5C 146.856,183.84 144.523,183.173 142.5,181.5C 141.261,181.942 140.261,182.609 139.5,183.5C 136.318,181.807 134.652,179.141 134.5,175.5C 132.167,175.5 129.833,175.5 127.5,175.5C 127.5,170.167 127.5,164.833 127.5,159.5C 125.5,159.5 123.5,159.5 121.5,159.5C 121.5,154.167 121.5,148.833 121.5,143.5C 118.167,143.5 114.833,143.5 111.5,143.5C 111.665,139.818 111.499,136.152 111,132.5C 109.883,134.124 108.383,135.124 106.5,135.5C 103.173,133.506 100.506,130.839 98.5,127.5C 101.076,130.041 104.242,131.707 108,132.5C 110.942,130.59 113.442,128.256 115.5,125.5C 124.427,116.374 133.761,107.708 143.5,99.5 Z"/></g>
<g><path style="opacity:1" fill="#fec72f" d="M 303.5,131.5 C 300.606,130.118 298.106,128.118 296,125.5C 291.62,120.924 287.453,116.257 283.5,111.5C 287.336,111.126 291.336,111.126 295.5,111.5C 294.817,117.034 296.151,122.034 299.5,126.5C 301.621,126.54 303.621,127.04 305.5,128C 304.027,128.71 303.36,129.876 303.5,131.5 Z"/></g>
<g><path style="opacity:1" fill="#fdcb2e" d="M 319.5,177.5 C 319.5,188.833 319.5,200.167 319.5,211.5C 317.035,213.314 314.368,214.647 311.5,215.5C 311.5,218.167 311.5,220.833 311.5,223.5C 309.473,223.338 307.473,223.505 305.5,224C 302.617,228.596 299.45,229.096 296,225.5C 296.08,230.635 295.247,235.469 293.5,240C 294.305,241.113 294.972,242.279 295.5,243.5C 292.337,244.321 289.67,245.988 287.5,248.5C 289.149,249.148 290.482,250.148 291.5,251.5C 289.761,253.104 287.761,254.437 285.5,255.5C 283.429,254.714 281.762,253.381 280.5,251.5C 279.618,252.76 278.618,253.926 277.5,255C 270.174,255.5 262.841,255.666 255.5,255.5C 255.665,259.182 255.499,262.848 255,266.5C 251.5,263 248,259.5 244.5,256C 242.866,255.506 241.199,255.34 239.5,255.5C 241.153,252.856 243.487,250.856 246.5,249.5C 247.498,240.859 247.831,232.192 247.5,223.5C 244.833,223.5 242.167,223.5 239.5,223.5C 239.5,220.833 239.5,218.167 239.5,215.5C 234.067,214.636 228.734,214.636 223.5,215.5C 225.144,213.519 226.81,211.519 228.5,209.5C 230.503,207.985 232.837,207.319 235.5,207.5C 238.609,207.638 241.276,208.638 243.5,210.5C 245.332,209.179 247.332,208.179 249.5,207.5C 249.808,203.991 251.808,202.324 255.5,202.5C 255.5,198.833 255.5,195.167 255.5,191.5C 252.833,191.5 250.167,191.5 247.5,191.5C 254.155,185.507 260.155,178.841 265.5,171.5C 267.5,172.167 269.5,172.833 271.5,173.5C 271.5,172.167 271.5,170.833 271.5,169.5C 279.28,169.217 286.947,169.884 294.5,171.5C 294.343,170.127 294.51,168.793 295,167.5C 295.308,168.308 295.808,168.975 296.5,169.5C 300.25,165.879 304.25,165.212 308.5,167.5C 309.976,170.661 310.976,173.995 311.5,177.5C 314.167,177.5 316.833,177.5 319.5,177.5 Z"/></g>
<g><path style="opacity:1" fill="#fcc72e" d="M 297.5,173.5 C 300.891,173.297 303.891,174.297 306.5,176.5C 302.961,178.235 299.294,179.568 295.5,180.5C 295.468,177.924 296.135,175.591 297.5,173.5 Z"/></g>
<g><path style="opacity:1" fill="#fbc522" d="M 221.5,215.5 C 217.86,220.639 213.36,224.972 208,228.5C 207.333,229.833 207.333,231.167 208,232.5C 214.688,238.19 221.022,244.19 227,250.5C 227.635,251.966 228.469,253.3 229.5,254.5C 232.292,257.06 235.292,259.394 238.5,261.5C 239.167,261.5 239.5,261.833 239.5,262.5C 241.43,266.1 244.097,269.1 247.5,271.5C 248.239,271.369 248.906,271.536 249.5,272C 253.742,277.732 258.408,282.899 263.5,287.5C 262.5,287.5 261.5,287.5 260.5,287.5C 260.338,289.527 260.505,291.527 261,293.5C 262.667,294.833 264.333,296.167 266,297.5C 266.495,299.473 266.662,301.473 266.5,303.5C 268.167,303.5 269.833,303.5 271.5,303.5C 271.5,314.167 271.5,324.833 271.5,335.5C 274.167,335.5 276.833,335.5 279.5,335.5C 278.955,341.463 279.621,347.13 281.5,352.5C 276.883,357.454 272.216,362.454 267.5,367.5C 267.631,368.239 267.464,368.906 267,369.5C 260.122,376.048 252.955,382.215 245.5,388C 244.177,388.816 243.511,389.983 243.5,391.5C 239.74,392.926 237.407,395.593 236.5,399.5C 234.938,399.733 233.605,400.4 232.5,401.5C 231.761,401.369 231.094,401.536 230.5,402C 228.234,404.391 226.067,406.891 224,409.5C 223.667,409.167 223.333,408.833 223,408.5C 216.466,414.739 210.966,420.406 206.5,425.5C 206.631,424.761 206.464,424.094 206,423.5C 205,424.833 204,424.833 203,423.5C 200.92,420.935 199.087,418.268 197.5,415.5C 199.476,405.219 200.143,394.552 199.5,383.5C 198.167,383.5 196.833,383.5 195.5,383.5C 195.5,378.167 195.5,372.833 195.5,367.5C 194.167,367.5 192.833,367.5 191.5,367.5C 191.5,362.167 191.5,356.833 191.5,351.5C 188.833,351.5 186.167,351.5 183.5,351.5C 183.5,346.167 183.5,340.833 183.5,335.5C 180.833,335.5 178.167,335.5 175.5,335.5C 175.5,330.167 175.5,324.833 175.5,319.5C 173.5,319.5 171.5,319.5 169.5,319.5C 169.5,314.167 169.5,308.833 169.5,303.5C 166.167,303.5 162.833,303.5 159.5,303.5C 159.5,300.833 159.5,298.167 159.5,295.5C 154.167,295.5 148.833,295.5 143.5,295.5C 143.5,294.167 143.5,292.833 143.5,291.5C 143.5,284.833 143.5,278.167 143.5,271.5C 144.833,271.5 146.167,271.5 147.5,271.5C 147.5,266.167 147.5,260.833 147.5,255.5C 145.5,255.5 143.5,255.5 141.5,255.5C 140.303,251.078 138.803,246.744 137,242.5C 136.092,240.561 134.592,239.561 132.5,239.5C 131.833,236.833 131.167,234.167 130.5,231.5C 135.067,231.744 139.401,232.91 143.5,235C 146.146,235.497 148.813,235.664 151.5,235.5C 149.635,232.091 147.968,228.424 146.5,224.5C 145.5,223.833 144.5,223.167 143.5,222.5C 144.833,221.5 146.167,220.5 147.5,219.5C 151.028,222.17 154.861,224.17 159,225.5C 159.167,223 159.333,220.5 159.5,218C 161.019,211.041 158.353,207.541 151.5,207.5C 151.665,204.15 151.498,200.817 151,197.5C 149.337,195.842 148.504,193.842 148.5,191.5C 146.833,191.5 145.167,191.5 143.5,191.5C 144.428,187.517 143.095,184.85 139.5,183.5C 140.261,182.609 141.261,181.942 142.5,181.5C 144.523,183.173 146.856,183.84 149.5,183.5C 149.192,186.713 150.359,187.713 153,186.5C 156.961,188.365 161.128,189.365 165.5,189.5C 165.026,185.719 163.359,182.552 160.5,180C 165.537,179.337 170.537,179.504 175.5,180.5C 175.5,184.167 175.5,187.833 175.5,191.5C 177.833,191.5 180.167,191.5 182.5,191.5C 183.303,196.476 186.136,199.809 191,201.5C 191.495,203.473 191.662,205.473 191.5,207.5C 193.5,207.5 195.5,207.5 197.5,207.5C 197.187,204.753 197.52,202.086 198.5,199.5C 201.075,203.02 204.408,204.353 208.5,203.5C 212.797,207.11 217.797,208.443 223.5,207.5C 223.306,210.33 222.639,212.996 221.5,215.5 Z"/></g>
<g><path style="opacity:1" fill="#fdcf1b" d="M 15.5,207.5 C 17.288,207.215 18.9547,207.548 20.5,208.5C 21.3917,211.284 22.5584,213.95 24,216.5C 27.006,217.841 28.506,220.175 28.5,223.5C 29.5,223.5 30.5,223.5 31.5,223.5C 31.2148,225.288 31.5481,226.955 32.5,228.5C 34.0459,229.212 35.0459,230.378 35.5,232C 33.1854,233.986 31.852,236.486 31.5,239.5C 28.8333,239.5 26.1667,239.5 23.5,239.5C 23.1866,242.247 23.52,244.914 24.5,247.5C 27.7503,252.235 30.7503,257.068 33.5,262C 32.1548,264.428 30.3215,264.928 28,263.5C 26.5659,263.93 25.3992,264.764 24.5,266C 25.218,267.987 26.218,269.821 27.5,271.5C 26.0859,274.213 24.7525,276.88 23.5,279.5C 26.1667,279.5 28.8333,279.5 31.5,279.5C 31.5,282.167 31.5,284.833 31.5,287.5C 32.8333,287.5 34.1667,287.5 35.5,287.5C 35.5,292.833 35.5,298.167 35.5,303.5C 32.8333,303.5 30.1667,303.5 27.5,303.5C 27.5,308.833 27.5,314.167 27.5,319.5C 28.8333,319.5 30.1667,319.5 31.5,319.5C 31.5,316.833 31.5,314.167 31.5,311.5C 36.8333,311.5 42.1667,311.5 47.5,311.5C 47.4172,303.859 48.5839,303.859 51,311.5C 51.4974,314.146 51.6641,316.813 51.5,319.5C 47.5,319.5 43.5,319.5 39.5,319.5C 38.7599,324.76 38.7599,330.093 39.5,335.5C 41.288,335.215 42.9547,335.548 44.5,336.5C 47.0213,341.179 48.0213,346.179 47.5,351.5C 48.8333,351.5 50.1667,351.5 51.5,351.5C 53.865,356.55 55.1984,361.883 55.5,367.5C 59.2838,367.525 60.2838,369.192 58.5,372.5C 55.9356,372.021 53.4356,371.355 51,370.5C 50.2707,365.979 48.9374,361.646 47,357.5C 41.6057,348.708 37.2723,339.375 34,329.5C 32.951,327.893 31.451,327.227 29.5,327.5C 29.0108,332.553 30.5108,336.886 34,340.5C 34.5289,346.356 36.8622,351.356 41,355.5C 42.1667,359.167 43.3333,362.833 44.5,366.5C 45.325,367.386 46.325,367.719 47.5,367.5C 47.073,370.788 47.7397,373.788 49.5,376.5C 47.2492,378.53 46.9158,380.864 48.5,383.5C 47.71,384.609 47.21,385.942 47,387.5C 42.2674,390.731 38.4341,394.731 35.5,399.5C 34.1667,399.5 32.8333,399.5 31.5,399.5C 31.5,396.833 31.5,394.167 31.5,391.5C 33.5,391.5 35.5,391.5 37.5,391.5C 36.8641,388.894 36.8641,386.394 37.5,384C 35.5273,383.505 33.5273,383.338 31.5,383.5C 31.5,378.167 31.5,372.833 31.5,367.5C 28.8333,367.5 26.1667,367.5 23.5,367.5C 23.7988,360.109 23.4655,352.776 22.5,345.5C 21.9747,344.808 21.3081,344.308 20.5,344C 14.1405,343.169 7.80717,343.336 1.5,344.5C 2.30294,348.417 4.13627,351.75 7,354.5C 7.42505,359.007 8.25838,363.341 9.5,367.5C 10.5,367.5 11.5,367.5 12.5,367.5C 12.33,368.822 12.6634,369.989 13.5,371C 12.8333,371.167 12.1667,371.333 11.5,371.5C 7.54423,369.959 3.54423,368.626 -0.5,367.5C -0.5,307.5 -0.5,247.5 -0.5,187.5C 3.05763,185.889 6.72429,184.555 10.5,183.5C 14.5594,184.577 16.226,187.244 15.5,191.5C 14.1667,191.5 12.8333,191.5 11.5,191.5C 11.5,196.833 11.5,202.167 11.5,207.5C 12.8333,207.5 14.1667,207.5 15.5,207.5 Z"/></g>
<g><path style="opacity:1" fill="#fcc92a" d="M 247.5,191.5 C 250.167,191.5 252.833,191.5 255.5,191.5C 255.5,195.167 255.5,198.833 255.5,202.5C 251.808,202.324 249.808,203.991 249.5,207.5C 247.332,208.179 245.332,209.179 243.5,210.5C 241.276,208.638 238.609,207.638 235.5,207.5C 232.837,207.319 230.503,207.985 228.5,209.5C 229.728,206.925 231.395,204.592 233.5,202.5C 238.174,198.824 242.84,195.158 247.5,191.5 Z"/></g>
<g><path style="opacity:1" fill="#fdcb1d" d="M 136.5,300.5 C 136.38,302.199 136.046,303.865 135.5,305.5C 136.544,308.114 137.877,310.614 139.5,313C 140.287,315.099 140.62,317.266 140.5,319.5C 141.5,319.5 142.5,319.5 143.5,319.5C 142.789,323.281 143.955,326.281 147,328.5C 147.977,330.74 148.477,333.073 148.5,335.5C 149.5,335.5 150.5,335.5 151.5,335.5C 151.335,338.85 151.502,342.183 152,345.5C 153.663,347.158 154.496,349.158 154.5,351.5C 156.833,351.5 159.167,351.5 161.5,351.5C 161.839,362.218 162.839,372.885 164.5,383.5C 167.432,384.8 169.766,386.8 171.5,389.5C 172.736,390.246 174.07,390.579 175.5,390.5C 175.777,393.448 175.444,396.281 174.5,399C 177.361,398.97 179.695,399.803 181.5,401.5C 179.746,404.26 177.412,406.26 174.5,407.5C 174.462,403.215 172.962,399.548 170,396.5C 169.28,394.888 169.446,393.388 170.5,392C 169.551,391.383 168.718,391.549 168,392.5C 165.618,388.434 162.784,384.601 159.5,381C 158.216,380.316 157.049,380.483 156,381.5C 156.93,377.881 155.43,375.547 151.5,374.5C 144.154,365.416 136.154,357.082 127.5,349.5C 123.678,345.73 120.011,341.73 116.5,337.5C 115.15,336.05 113.484,335.383 111.5,335.5C 111.214,332.07 109.38,329.736 106,328.5C 103.656,330.677 101.489,333.01 99.5,335.5C 98.1667,335.5 96.8333,335.5 95.5,335.5C 95.6567,336.873 95.49,338.207 95,339.5C 90.5332,342.965 86.3666,346.798 82.5,351C 81.552,351.483 80.552,351.649 79.5,351.5C 79.6495,352.552 79.4828,353.552 79,354.5C 77.2417,356.083 75.7417,357.75 74.5,359.5C 72.629,359.859 71.129,360.859 70,362.5C 69.195,360.099 68.3617,360.266 67.5,363C 66.062,363.219 64.7287,363.719 63.5,364.5C 64.1272,365.417 64.4606,366.417 64.5,367.5C 63.596,368.209 63.2627,369.209 63.5,370.5C 61.8333,371.167 60.1667,371.833 58.5,372.5C 60.2838,369.192 59.2838,367.525 55.5,367.5C 55.1984,361.883 53.865,356.55 51.5,351.5C 50.1667,351.5 48.8333,351.5 47.5,351.5C 48.0213,346.179 47.0213,341.179 44.5,336.5C 42.9547,335.548 41.288,335.215 39.5,335.5C 38.7599,330.093 38.7599,324.76 39.5,319.5C 43.5,319.5 47.5,319.5 51.5,319.5C 51.6641,316.813 51.4974,314.146 51,311.5C 48.5839,303.859 47.4172,303.859 47.5,311.5C 42.1667,311.5 36.8333,311.5 31.5,311.5C 31.5,314.167 31.5,316.833 31.5,319.5C 30.1667,319.5 28.8333,319.5 27.5,319.5C 27.5,314.167 27.5,308.833 27.5,303.5C 30.1667,303.5 32.8333,303.5 35.5,303.5C 35.5,298.167 35.5,292.833 35.5,287.5C 34.1667,287.5 32.8333,287.5 31.5,287.5C 31.5,284.833 31.5,282.167 31.5,279.5C 28.8333,279.5 26.1667,279.5 23.5,279.5C 24.7525,276.88 26.0859,274.213 27.5,271.5C 26.218,269.821 25.218,267.987 24.5,266C 25.3992,264.764 26.5659,263.93 28,263.5C 30.3215,264.928 32.1548,264.428 33.5,262C 30.7503,257.068 27.7503,252.235 24.5,247.5C 23.52,244.914 23.1866,242.247 23.5,239.5C 26.1667,239.5 28.8333,239.5 31.5,239.5C 31.852,236.486 33.1854,233.986 35.5,232C 35.0459,230.378 34.0459,229.212 32.5,228.5C 31.5481,226.955 31.2148,225.288 31.5,223.5C 34.8981,223.858 38.0647,223.192 41,221.5C 42.9214,223.003 45.088,223.669 47.5,223.5C 47.5,226.167 47.5,228.833 47.5,231.5C 48.5,231.5 49.5,231.5 50.5,231.5C 50.3505,232.552 50.5172,233.552 51,234.5C 54.4727,237.475 57.4727,240.808 60,244.5C 63.1069,243.204 64.1069,240.871 63,237.5C 60.1261,236.468 58.6261,234.468 58.5,231.5C 57.5,231.5 56.5,231.5 55.5,231.5C 55.0276,226.418 52.6943,222.418 48.5,219.5C 52.0159,218.492 55.1826,216.825 58,214.5C 59.6667,215.5 61.3333,216.5 63,217.5C 63.4955,219.473 63.6621,221.473 63.5,223.5C 65.288,223.215 66.9547,223.548 68.5,224.5C 69.2357,226.541 70.0691,228.541 71,230.5C 73.456,228.679 76.2893,228.012 79.5,228.5C 79.5,229.5 79.5,230.5 79.5,231.5C 83.8839,231.826 88.2172,231.492 92.5,230.5C 89.4606,225.62 86.7939,220.62 84.5,215.5C 81.2549,214.255 78.9215,211.922 77.5,208.5C 80.4281,207.516 83.4281,207.183 86.5,207.5C 87.303,212.476 90.1364,215.809 95,217.5C 95.4955,219.473 95.6621,221.473 95.5,223.5C 96.8333,223.5 98.1667,223.5 99.5,223.5C 99.5,228.833 99.5,234.167 99.5,239.5C 97.6453,239.272 96.8119,239.939 97,241.5C 101.5,245.833 106,250.167 110.5,254.5C 113.428,255.484 116.428,255.817 119.5,255.5C 119.5,260.833 119.5,266.167 119.5,271.5C 122.167,271.5 124.833,271.5 127.5,271.5C 127.334,278.841 127.5,286.174 128,293.5C 131.631,294.973 134.464,297.306 136.5,300.5 Z"/></g>
<g><path style="opacity:1" fill="#fdcd31" d="M 319.5,211.5 C 319.5,220.833 319.5,230.167 319.5,239.5C 315.935,241.526 312.102,243.193 308,244.5C 305.699,243.2 303.699,241.533 302,239.5C 299.995,240.682 298.162,242.015 296.5,243.5C 296.167,243.5 295.833,243.5 295.5,243.5C 294.972,242.279 294.305,241.113 293.5,240C 295.247,235.469 296.08,230.635 296,225.5C 299.45,229.096 302.617,228.596 305.5,224C 307.473,223.505 309.473,223.338 311.5,223.5C 311.5,220.833 311.5,218.167 311.5,215.5C 314.368,214.647 317.035,213.314 319.5,211.5 Z"/></g>
<g><path style="opacity:1" fill="#fdcb2a" d="M 239.5,255.5 C 238.325,255.281 237.325,255.614 236.5,256.5C 237.641,257.425 237.641,258.259 236.5,259C 238.935,259.075 239.602,259.908 238.5,261.5C 235.292,259.394 232.292,257.06 229.5,254.5C 228.469,253.3 227.635,251.966 227,250.5C 221.022,244.19 214.688,238.19 208,232.5C 207.333,231.167 207.333,229.833 208,228.5C 213.36,224.972 217.86,220.639 221.5,215.5C 222.167,215.5 222.833,215.5 223.5,215.5C 228.734,214.636 234.067,214.636 239.5,215.5C 239.5,218.167 239.5,220.833 239.5,223.5C 242.167,223.5 244.833,223.5 247.5,223.5C 247.831,232.192 247.498,240.859 246.5,249.5C 243.487,250.856 241.153,252.856 239.5,255.5 Z"/></g>
<g><path style="opacity:1" fill="#fdd133" d="M 319.5,239.5 C 319.5,257.167 319.5,274.833 319.5,292.5C 317.021,293.974 314.354,294.974 311.5,295.5C 311.5,296.5 311.5,297.5 311.5,298.5C 309.095,298.866 306.762,299.533 304.5,300.5C 302.595,299.935 300.929,298.935 299.5,297.5C 298.117,299.32 297.117,301.32 296.5,303.5C 295.5,303.5 294.5,303.5 293.5,303.5C 295.212,301.104 295.712,298.438 295,295.5C 293.173,292.84 291.006,290.506 288.5,288.5C 290.381,286.266 292.715,284.933 295.5,284.5C 295.5,285.5 295.5,286.5 295.5,287.5C 297.924,287.808 300.257,287.474 302.5,286.5C 298,282.167 293.5,277.833 289,273.5C 289.135,271.575 289.302,269.575 289.5,267.5C 292.278,267.978 294.278,266.978 295.5,264.5C 300.7,264.465 304.033,261.965 305.5,257C 303.744,253.384 303.077,249.551 303.5,245.5C 301.473,245.662 299.473,245.495 297.5,245C 296.944,244.617 296.611,244.117 296.5,243.5C 298.162,242.015 299.995,240.682 302,239.5C 303.699,241.533 305.699,243.2 308,244.5C 312.102,243.193 315.935,241.526 319.5,239.5 Z"/></g>
<g><path style="opacity:1" fill="#fcd02f" d="M 295.5,243.5 C 295.833,243.5 296.167,243.5 296.5,243.5C 296.611,244.117 296.944,244.617 297.5,245C 299.473,245.495 301.473,245.662 303.5,245.5C 303.077,249.551 303.744,253.384 305.5,257C 304.033,261.965 300.7,264.465 295.5,264.5C 294.278,266.978 292.278,267.978 289.5,267.5C 289.302,269.575 289.135,271.575 289,273.5C 293.5,277.833 298,282.167 302.5,286.5C 300.257,287.474 297.924,287.808 295.5,287.5C 295.5,286.5 295.5,285.5 295.5,284.5C 292.715,284.933 290.381,286.266 288.5,288.5C 291.006,290.506 293.173,292.84 295,295.5C 295.712,298.438 295.212,301.104 293.5,303.5C 291.906,303.92 290.406,304.586 289,305.5C 283.844,302.661 283.344,303.328 287.5,307.5C 286.209,308.527 286.209,309.527 287.5,310.5C 284.482,309.647 282.649,307.647 282,304.5C 280.933,303.809 279.766,303.309 278.5,303C 273.838,297.512 268.838,292.346 263.5,287.5C 258.408,282.899 253.742,277.732 249.5,272C 248.906,271.536 248.239,271.369 247.5,271.5C 246.587,269.914 246.587,268.414 247.5,267C 245.114,266.716 244.448,265.716 245.5,264C 244.216,263.316 243.049,263.483 242,264.5C 241.583,263.244 240.75,262.577 239.5,262.5C 239.5,261.833 239.167,261.5 238.5,261.5C 239.602,259.908 238.935,259.075 236.5,259C 237.641,258.259 237.641,257.425 236.5,256.5C 237.325,255.614 238.325,255.281 239.5,255.5C 241.199,255.34 242.866,255.506 244.5,256C 248,259.5 251.5,263 255,266.5C 255.499,262.848 255.665,259.182 255.5,255.5C 262.841,255.666 270.174,255.5 277.5,255C 278.618,253.926 279.618,252.76 280.5,251.5C 281.762,253.381 283.429,254.714 285.5,255.5C 287.761,254.437 289.761,253.104 291.5,251.5C 290.482,250.148 289.149,249.148 287.5,248.5C 289.67,245.988 292.337,244.321 295.5,243.5 Z"/></g>
<g><path style="opacity:1" fill="#fbc71f" d="M 141.5,255.5 C 143.5,255.5 145.5,255.5 147.5,255.5C 147.5,260.833 147.5,266.167 147.5,271.5C 146.167,271.5 144.833,271.5 143.5,271.5C 143.5,278.167 143.5,284.833 143.5,291.5C 140.654,287.652 137.988,283.652 135.5,279.5C 135.667,278.833 135.833,278.167 136,277.5C 137.418,279.363 139.251,279.863 141.5,279C 140.565,276.619 140.232,274.119 140.5,271.5C 139.5,271.5 138.5,271.5 137.5,271.5C 136.169,265.84 133.502,260.84 129.5,256.5C 133.445,255.509 137.445,255.176 141.5,255.5 Z"/></g>
<g><path style="opacity:1" fill="#fccb2a" d="M 239.5,262.5 C 240.75,262.577 241.583,263.244 242,264.5C 243.049,263.483 244.216,263.316 245.5,264C 244.448,265.716 245.114,266.716 247.5,267C 246.587,268.414 246.587,269.914 247.5,271.5C 244.097,269.1 241.43,266.1 239.5,262.5 Z"/></g>
<g><path style="opacity:1" fill="#fbc226" d="M 263.5,287.5 C 268.838,292.346 273.838,297.512 278.5,303C 279.766,303.309 280.933,303.809 282,304.5C 282.649,307.647 284.482,309.647 287.5,310.5C 287.5,310.833 287.5,311.167 287.5,311.5C 289.452,314.118 291.785,316.452 294.5,318.5C 295.391,319.11 296.391,319.443 297.5,319.5C 298.092,323.089 300.092,325.422 303.5,326.5C 303.5,326.833 303.5,327.167 303.5,327.5C 303.662,329.527 303.495,331.527 303,333.5C 302.617,334.056 302.117,334.389 301.5,334.5C 294.882,340.446 288.216,346.446 281.5,352.5C 279.621,347.13 278.955,341.463 279.5,335.5C 276.833,335.5 274.167,335.5 271.5,335.5C 271.5,324.833 271.5,314.167 271.5,303.5C 269.833,303.5 268.167,303.5 266.5,303.5C 266.662,301.473 266.495,299.473 266,297.5C 264.333,296.167 262.667,294.833 261,293.5C 260.505,291.527 260.338,289.527 260.5,287.5C 261.5,287.5 262.5,287.5 263.5,287.5 Z"/></g>
<g><path style="opacity:1" fill="#fdd634" d="M 319.5,292.5 C 319.5,306.833 319.5,321.167 319.5,335.5C 318.022,335.762 316.689,335.429 315.5,334.5C 313.346,330.714 310.346,329.048 306.5,329.5C 305.222,329.218 304.222,328.551 303.5,327.5C 303.5,327.167 303.5,326.833 303.5,326.5C 301.295,324.637 299.961,322.303 299.5,319.5C 300.822,319.33 301.989,319.663 303,320.5C 303.167,319.667 303.333,318.833 303.5,318C 300.215,313.597 297.882,308.764 296.5,303.5C 297.117,301.32 298.117,299.32 299.5,297.5C 300.929,298.935 302.595,299.935 304.5,300.5C 306.762,299.533 309.095,298.866 311.5,298.5C 311.5,297.5 311.5,296.5 311.5,295.5C 314.354,294.974 317.021,293.974 319.5,292.5 Z"/></g>
<g><path style="opacity:1" fill="#fcc61e" d="M 143.5,295.5 C 148.833,295.5 154.167,295.5 159.5,295.5C 159.5,298.167 159.5,300.833 159.5,303.5C 162.833,303.5 166.167,303.5 169.5,303.5C 169.5,308.833 169.5,314.167 169.5,319.5C 171.5,319.5 173.5,319.5 175.5,319.5C 175.5,324.833 175.5,330.167 175.5,335.5C 178.167,335.5 180.833,335.5 183.5,335.5C 183.5,340.833 183.5,346.167 183.5,351.5C 186.167,351.5 188.833,351.5 191.5,351.5C 191.5,356.833 191.5,362.167 191.5,367.5C 192.833,367.5 194.167,367.5 195.5,367.5C 195.5,372.833 195.5,378.167 195.5,383.5C 196.833,383.5 198.167,383.5 199.5,383.5C 200.143,394.552 199.476,405.219 197.5,415.5C 196.448,415.649 195.448,415.483 194.5,415C 190.362,410.361 186.029,405.861 181.5,401.5C 179.695,399.803 177.361,398.97 174.5,399C 175.444,396.281 175.777,393.448 175.5,390.5C 174.07,390.579 172.736,390.246 171.5,389.5C 169.766,386.8 167.432,384.8 164.5,383.5C 162.839,372.885 161.839,362.218 161.5,351.5C 159.167,351.5 156.833,351.5 154.5,351.5C 154.496,349.158 153.663,347.158 152,345.5C 151.502,342.183 151.335,338.85 151.5,335.5C 150.5,335.5 149.5,335.5 148.5,335.5C 148.477,333.073 147.977,330.74 147,328.5C 143.955,326.281 142.789,323.281 143.5,319.5C 142.5,319.5 141.5,319.5 140.5,319.5C 140.62,317.266 140.287,315.099 139.5,313C 137.877,310.614 136.544,308.114 135.5,305.5C 136.046,303.865 136.38,302.199 136.5,300.5C 138.196,300.685 139.529,301.519 140.5,303C 142.473,303.495 144.473,303.662 146.5,303.5C 146.606,300.385 145.606,297.719 143.5,295.5 Z"/></g>
<g><path style="opacity:1" fill="#fcd631" d="M 293.5,303.5 C 294.5,303.5 295.5,303.5 296.5,303.5C 297.882,308.764 300.215,313.597 303.5,318C 303.333,318.833 303.167,319.667 303,320.5C 301.989,319.663 300.822,319.33 299.5,319.5C 298.833,319.5 298.167,319.5 297.5,319.5C 296.391,319.443 295.391,319.11 294.5,318.5C 293.167,315.167 290.833,312.833 287.5,311.5C 287.5,311.167 287.5,310.833 287.5,310.5C 286.209,309.527 286.209,308.527 287.5,307.5C 283.344,303.328 283.844,302.661 289,305.5C 290.406,304.586 291.906,303.92 293.5,303.5 Z"/></g>
<g><path style="opacity:1" fill="#fbcd2c" d="M 287.5,311.5 C 290.833,312.833 293.167,315.167 294.5,318.5C 291.785,316.452 289.452,314.118 287.5,311.5 Z"/></g>
<g><path style="opacity:1" fill="#fdcf2f" d="M 297.5,319.5 C 298.167,319.5 298.833,319.5 299.5,319.5C 299.961,322.303 301.295,324.637 303.5,326.5C 300.092,325.422 298.092,323.089 297.5,319.5 Z"/></g>
<g><path style="opacity:1" fill="#fcce19" d="M 58.5,372.5 C 60.1667,371.833 61.8333,371.167 63.5,370.5C 62.1667,372.167 60.8333,373.833 59.5,375.5C 57.5,376.833 55.8333,378.5 54.5,380.5C 52.9468,382.385 50.9468,383.385 48.5,383.5C 46.9158,380.864 47.2492,378.53 49.5,376.5C 47.7397,373.788 47.073,370.788 47.5,367.5C 46.325,367.719 45.325,367.386 44.5,366.5C 43.3333,362.833 42.1667,359.167 41,355.5C 36.8622,351.356 34.5289,346.356 34,340.5C 30.5108,336.886 29.0108,332.553 29.5,327.5C 31.451,327.227 32.951,327.893 34,329.5C 37.2723,339.375 41.6057,348.708 47,357.5C 48.9374,361.646 50.2707,365.979 51,370.5C 53.4356,371.355 55.9356,372.021 58.5,372.5 Z"/></g>
<g><path style="opacity:1" fill="#fedc3b" d="M 319.5,335.5 C 319.5,337.833 319.5,340.167 319.5,342.5C 314.973,338.395 310.64,334.061 306.5,329.5C 310.346,329.048 313.346,330.714 315.5,334.5C 316.689,335.429 318.022,335.762 319.5,335.5 Z"/></g>
<g><path style="opacity:1" fill="#fccd2d" d="M 303.5,327.5 C 304.222,328.551 305.222,329.218 306.5,329.5C 310.64,334.061 314.973,338.395 319.5,342.5C 319.5,350.167 319.5,357.833 319.5,365.5C 317.886,367.075 315.886,367.741 313.5,367.5C 313.5,364.833 313.5,362.167 313.5,359.5C 310.167,359.5 306.833,359.5 303.5,359.5C 303.5,356.833 303.5,354.167 303.5,351.5C 300.128,350.43 300.128,348.597 303.5,346C 301.275,343.278 298.608,342.778 295.5,344.5C 296.743,342.247 298.41,340.247 300.5,338.5C 301.429,337.311 301.762,335.978 301.5,334.5C 302.117,334.389 302.617,334.056 303,333.5C 303.495,331.527 303.662,329.527 303.5,327.5 Z"/></g>
<g><path style="opacity:1" fill="#fdd01f" d="M 127.5,349.5 C 122.167,350.167 122.167,350.833 127.5,351.5C 127.179,361.403 129.679,370.736 135,379.5C 135.49,380.793 135.657,382.127 135.5,383.5C 132.833,383.5 130.167,383.5 127.5,383.5C 127.5,379.833 127.5,376.167 127.5,372.5C 121.797,369.948 116.297,366.948 111,363.5C 110.525,368.988 111.859,373.988 115,378.5C 115.494,380.134 115.66,381.801 115.5,383.5C 114.167,383.5 112.833,383.5 111.5,383.5C 112.218,379.097 111.051,375.43 108,372.5C 107.138,370.913 106.471,369.246 106,367.5C 105.501,362.177 105.334,356.844 105.5,351.5C 103.5,351.5 101.5,351.5 99.5,351.5C 99.5,346.167 99.5,340.833 99.5,335.5C 101.489,333.01 103.656,330.677 106,328.5C 109.38,329.736 111.214,332.07 111.5,335.5C 113.484,335.383 115.15,336.05 116.5,337.5C 120.011,341.73 123.678,345.73 127.5,349.5 Z"/></g>
<g><path style="opacity:1" fill="#fdd21e" d="M 99.5,335.5 C 99.5,340.833 99.5,346.167 99.5,351.5C 101.5,351.5 103.5,351.5 105.5,351.5C 105.334,356.844 105.501,362.177 106,367.5C 106.471,369.246 107.138,370.913 108,372.5C 111.051,375.43 112.218,379.097 111.5,383.5C 112.833,383.5 114.167,383.5 115.5,383.5C 115.66,381.801 115.494,380.134 115,378.5C 111.859,373.988 110.525,368.988 111,363.5C 116.297,366.948 121.797,369.948 127.5,372.5C 127.5,376.167 127.5,379.833 127.5,383.5C 130.167,383.5 132.833,383.5 135.5,383.5C 135.5,385.167 135.5,386.833 135.5,388.5C 135.5,392.167 135.5,395.833 135.5,399.5C 132.692,399.693 130.025,400.36 127.5,401.5C 127.83,407.868 127.496,414.202 126.5,420.5C 123.746,416.81 121.579,412.81 120,408.5C 119.784,403.068 117.284,399.068 112.5,396.5C 111.503,404.138 111.169,411.804 111.5,419.5C 108.227,416.849 105.727,413.516 104,409.5C 102.343,400.909 101.509,392.242 101.5,383.5C 99.5,383.5 97.5,383.5 95.5,383.5C 95.5,378.167 95.5,372.833 95.5,367.5C 93.4727,367.662 91.4727,367.495 89.5,367C 87.9831,364.796 86.6498,362.462 85.5,360C 83.5,359.667 81.5,359.333 79.5,359C 82.2674,358.331 82.7674,357.164 81,355.5C 78.9409,357.07 76.7742,358.403 74.5,359.5C 75.7417,357.75 77.2417,356.083 79,354.5C 79.4828,353.552 79.6495,352.552 79.5,351.5C 80.552,351.649 81.552,351.483 82.5,351C 86.3666,346.798 90.5332,342.965 95,339.5C 95.49,338.207 95.6567,336.873 95.5,335.5C 96.8333,335.5 98.1667,335.5 99.5,335.5 Z"/></g>
<g><path style="opacity:1" fill="#fdd017" d="M 31.5,399.5 C 31.6427,401.262 31.3094,402.929 30.5,404.5C 26.863,406.48 23.863,409.146 21.5,412.5C 20.0937,412.973 19.427,413.973 19.5,415.5C 18.1667,415.5 16.8333,415.5 15.5,415.5C 15.5,416.5 15.5,417.5 15.5,418.5C 14.2502,418.577 13.4169,419.244 13,420.5C 12.6667,420.167 12.3333,419.833 12,419.5C 10.6955,422.468 8.69549,424.801 6,426.5C 3.06218,425.717 0.895511,424.05 -0.5,421.5C -0.5,403.5 -0.5,385.5 -0.5,367.5C 3.54423,368.626 7.54423,369.959 11.5,371.5C 12.1667,371.333 12.8333,371.167 13.5,371C 12.6634,369.989 12.33,368.822 12.5,367.5C 11.5,367.5 10.5,367.5 9.5,367.5C 8.25838,363.341 7.42505,359.007 7,354.5C 4.13627,351.75 2.30294,348.417 1.5,344.5C 7.80717,343.336 14.1405,343.169 20.5,344C 21.3081,344.308 21.9747,344.808 22.5,345.5C 23.4655,352.776 23.7988,360.109 23.5,367.5C 26.1667,367.5 28.8333,367.5 31.5,367.5C 31.5,372.833 31.5,378.167 31.5,383.5C 33.5273,383.338 35.5273,383.505 37.5,384C 36.8641,386.394 36.8641,388.894 37.5,391.5C 35.5,391.5 33.5,391.5 31.5,391.5C 31.5,394.167 31.5,396.833 31.5,399.5 Z"/></g>
<g><path style="opacity:1" fill="#fdd12f" d="M 319.5,365.5 C 319.5,375.5 319.5,385.5 319.5,395.5C 316.71,393.818 314.377,394.318 312.5,397C 309.216,397.981 306.549,397.147 304.5,394.5C 304.833,393.833 305.167,393.167 305.5,392.5C 303.995,391.158 303.328,389.492 303.5,387.5C 300.833,387.5 298.167,387.5 295.5,387.5C 295.5,391.5 295.5,395.5 295.5,399.5C 293.539,397.881 292.206,395.714 291.5,393C 290.207,392.51 288.873,392.343 287.5,392.5C 287.5,390.833 287.5,389.167 287.5,387.5C 282.167,387.5 276.833,387.5 271.5,387.5C 271.5,386.167 271.5,384.833 271.5,383.5C 269.315,383.888 267.482,384.888 266,386.5C 264.205,386.24 262.371,385.906 260.5,385.5C 259.509,383.877 260.176,382.877 262.5,382.5C 263.281,381.271 263.781,379.938 264,378.5C 265.011,379.337 266.178,379.67 267.5,379.5C 267.5,378.167 267.5,376.833 267.5,375.5C 263.219,374.483 260.886,376.15 260.5,380.5C 254.78,384.246 249.113,387.913 243.5,391.5C 243.511,389.983 244.177,388.816 245.5,388C 252.955,382.215 260.122,376.048 267,369.5C 267.464,368.906 267.631,368.239 267.5,367.5C 268.833,367.5 270.167,367.5 271.5,367.5C 271.33,366.178 271.663,365.011 272.5,364C 275.725,361.067 279.058,358.233 282.5,355.5C 283.451,356.326 284.451,356.492 285.5,356C 284.441,353.29 285.441,351.457 288.5,350.5C 289.086,350.709 289.586,351.043 290,351.5C 291.666,349.004 293.5,346.671 295.5,344.5C 298.608,342.778 301.275,343.278 303.5,346C 300.128,348.597 300.128,350.43 303.5,351.5C 303.5,354.167 303.5,356.833 303.5,359.5C 306.833,359.5 310.167,359.5 313.5,359.5C 313.5,362.167 313.5,364.833 313.5,367.5C 315.886,367.741 317.886,367.075 319.5,365.5 Z"/></g>
<g><path style="opacity:1" fill="#fdcc20" d="M 127.5,349.5 C 136.154,357.082 144.154,365.416 151.5,374.5C 155.43,375.547 156.93,377.881 156,381.5C 157.049,380.483 158.216,380.316 159.5,381C 162.784,384.601 165.618,388.434 168,392.5C 168.718,391.549 169.551,391.383 170.5,392C 169.446,393.388 169.28,394.888 170,396.5C 172.962,399.548 174.462,403.215 174.5,407.5C 177.412,406.26 179.746,404.26 181.5,401.5C 186.029,405.861 190.362,410.361 194.5,415C 195.448,415.483 196.448,415.649 197.5,415.5C 199.087,418.268 200.92,420.935 203,423.5C 204,424.833 205,424.833 206,423.5C 206.464,424.094 206.631,424.761 206.5,425.5C 205.5,425.833 204.833,426.5 204.5,427.5C 200.363,430.805 196.697,434.638 193.5,439C 191.691,441.238 189.358,442.405 186.5,442.5C 186.509,444.308 186.009,445.975 185,447.5C 181.555,450.451 178.389,453.451 175.5,456.5C 173.262,455.463 170.929,455.297 168.5,456C 171,456.833 171.167,458 169,459.5C 167.681,457.75 167.181,455.75 167.5,453.5C 170.352,453.648 172.019,452.314 172.5,449.5C 171.257,447.309 170.424,444.976 170,442.5C 168.491,440.081 166.325,439.081 163.5,439.5C 162.908,436.873 162.575,434.206 162.5,431.5C 161.5,431.5 160.5,431.5 159.5,431.5C 159.5,428.5 159.5,425.5 159.5,422.5C 158.178,422.67 157.011,422.337 156,421.5C 155.61,418.161 155.776,414.827 156.5,411.5C 155.281,407.395 153.781,403.395 152,399.5C 151.727,401.101 151.227,402.601 150.5,404C 148.473,405.879 146.14,407.046 143.5,407.5C 144.075,401.731 142.242,397.065 138,393.5C 137.901,391.347 137.067,389.681 135.5,388.5C 135.5,386.833 135.5,385.167 135.5,383.5C 135.657,382.127 135.49,380.793 135,379.5C 129.679,370.736 127.179,361.403 127.5,351.5C 122.167,350.833 122.167,350.167 127.5,349.5 Z"/></g>
<g><path style="opacity:1" fill="#fdcb2a" d="M 301.5,334.5 C 301.762,335.978 301.429,337.311 300.5,338.5C 298.41,340.247 296.743,342.247 295.5,344.5C 293.5,346.671 291.666,349.004 290,351.5C 289.586,351.043 289.086,350.709 288.5,350.5C 285.441,351.457 284.441,353.29 285.5,356C 284.451,356.492 283.451,356.326 282.5,355.5C 279.058,358.233 275.725,361.067 272.5,364C 271.663,365.011 271.33,366.178 271.5,367.5C 270.167,367.5 268.833,367.5 267.5,367.5C 272.216,362.454 276.883,357.454 281.5,352.5C 288.216,346.446 294.882,340.446 301.5,334.5 Z"/></g>
<g><path style="opacity:1" fill="#fed61e" d="M 111.5,419.5 C 111.5,421.833 111.5,424.167 111.5,426.5C 111.19,427.738 110.69,427.738 110,426.5C 108.725,423.608 107.225,420.941 105.5,418.5C 102.59,418.848 100.59,420.348 99.5,423C 98.2068,423.49 96.8734,423.657 95.5,423.5C 95.713,417.931 94.713,412.598 92.5,407.5C 91.52,410.086 91.1866,412.753 91.5,415.5C 90.1667,415.5 88.8333,415.5 87.5,415.5C 88.3988,420.451 87.0654,421.451 83.5,418.5C 81.9222,419.64 80.2555,420.14 78.5,420C 74.6589,413.643 72.3256,406.809 71.5,399.5C 70.325,399.719 69.325,399.386 68.5,398.5C 67.8333,396.5 67.1667,394.5 66.5,392.5C 65.675,391.614 64.675,391.281 63.5,391.5C 62.7689,389.251 61.7689,387.084 60.5,385C 61.5771,382.436 60.7438,381.936 58,383.5C 57.5,383 57,382.5 56.5,382C 57.478,380.025 58.8113,378.358 60.5,377C 60.4301,376.235 60.0967,375.735 59.5,375.5C 60.8333,373.833 62.1667,372.167 63.5,370.5C 63.2627,369.209 63.596,368.209 64.5,367.5C 65.552,367.649 66.552,367.483 67.5,367C 70.1165,364.558 72.4498,362.058 74.5,359.5C 76.7742,358.403 78.9409,357.07 81,355.5C 82.7674,357.164 82.2674,358.331 79.5,359C 81.5,359.333 83.5,359.667 85.5,360C 86.6498,362.462 87.9831,364.796 89.5,367C 91.4727,367.495 93.4727,367.662 95.5,367.5C 95.5,372.833 95.5,378.167 95.5,383.5C 97.5,383.5 99.5,383.5 101.5,383.5C 101.509,392.242 102.343,400.909 104,409.5C 105.727,413.516 108.227,416.849 111.5,419.5 Z"/></g>
<g><path style="opacity:1" fill="#fdce19" d="M 74.5,359.5 C 72.4498,362.058 70.1165,364.558 67.5,367C 66.552,367.483 65.552,367.649 64.5,367.5C 64.4606,366.417 64.1272,365.417 63.5,364.5C 64.7287,363.719 66.062,363.219 67.5,363C 68.3617,360.266 69.195,360.099 70,362.5C 71.129,360.859 72.629,359.859 74.5,359.5 Z"/></g>
<g><path style="opacity:1" fill="#fcd62f" d="M 295.5,399.5 C 295.5,401.833 295.5,404.167 295.5,406.5C 292.873,407.092 290.206,407.425 287.5,407.5C 287.5,408.5 287.5,409.5 287.5,410.5C 285.516,410.617 283.85,409.95 282.5,408.5C 281.463,405.297 279.797,402.463 277.5,400C 275.527,399.505 273.527,399.338 271.5,399.5C 271.012,402.711 271.679,405.544 273.5,408C 267.766,414.535 264.266,413.368 263,404.5C 261.413,405.727 260.079,405.394 259,403.5C 258.934,400.724 257.768,398.558 255.5,397C 253.269,398.509 250.603,399.343 247.5,399.5C 248.113,405.271 247.446,410.604 245.5,415.5C 244.5,415.5 243.5,415.5 242.5,415.5C 242.5,412.833 242.5,410.167 242.5,407.5C 239.375,408.344 236.375,408.344 233.5,407.5C 232.833,408.5 232.167,409.5 231.5,410.5C 232.363,411.726 232.363,413.06 231.5,414.5C 230.069,414.119 229.236,413.119 229,411.5C 223.276,415.123 217.443,420.289 211.5,427C 210.207,427.49 208.873,427.657 207.5,427.5C 215.833,418.833 224.167,410.167 232.5,401.5C 233.605,400.4 234.938,399.733 236.5,399.5C 238.972,396.683 241.972,394.516 245.5,393C 244.584,392.722 243.918,392.222 243.5,391.5C 249.113,387.913 254.78,384.246 260.5,380.5C 260.886,376.15 263.219,374.483 267.5,375.5C 267.5,376.833 267.5,378.167 267.5,379.5C 266.178,379.67 265.011,379.337 264,378.5C 263.781,379.938 263.281,381.271 262.5,382.5C 260.176,382.877 259.509,383.877 260.5,385.5C 262.371,385.906 264.205,386.24 266,386.5C 267.482,384.888 269.315,383.888 271.5,383.5C 271.5,384.833 271.5,386.167 271.5,387.5C 276.833,387.5 282.167,387.5 287.5,387.5C 287.5,389.167 287.5,390.833 287.5,392.5C 288.873,392.343 290.207,392.51 291.5,393C 292.206,395.714 293.539,397.881 295.5,399.5 Z"/></g>
<g><path style="opacity:1" fill="#fed720" d="M 59.5,375.5 C 60.0967,375.735 60.4301,376.235 60.5,377C 58.8113,378.358 57.478,380.025 56.5,382C 57,382.5 57.5,383 58,383.5C 60.7438,381.936 61.5771,382.436 60.5,385C 61.7689,387.084 62.7689,389.251 63.5,391.5C 64.675,391.281 65.675,391.614 66.5,392.5C 67.1667,394.5 67.8333,396.5 68.5,398.5C 69.325,399.386 70.325,399.719 71.5,399.5C 72.3256,406.809 74.6589,413.643 78.5,420C 80.2555,420.14 81.9222,419.64 83.5,418.5C 87.0654,421.451 88.3988,420.451 87.5,415.5C 88.8333,415.5 90.1667,415.5 91.5,415.5C 91.1866,412.753 91.52,410.086 92.5,407.5C 94.713,412.598 95.713,417.931 95.5,423.5C 96.8734,423.657 98.2068,423.49 99.5,423C 100.59,420.348 102.59,418.848 105.5,418.5C 107.225,420.941 108.725,423.608 110,426.5C 110.69,427.738 111.19,427.738 111.5,426.5C 115.684,429.405 118.35,428.405 119.5,423.5C 121.604,423.201 123.604,423.534 125.5,424.5C 128.44,433.355 131.607,442.022 135,450.5C 136.501,460.167 138.001,469.834 139.5,479.5C 127.5,479.5 115.5,479.5 103.5,479.5C 103.5,474.167 103.5,468.833 103.5,463.5C 100.833,463.5 98.1667,463.5 95.5,463.5C 95.5,468.833 95.5,474.167 95.5,479.5C 93.5,479.5 91.5,479.5 89.5,479.5C 89.6657,475.154 89.499,470.821 89,466.5C 85.3914,452.178 81.8914,437.845 78.5,423.5C 76.4362,420.447 74.1028,417.78 71.5,415.5C 68.8333,415.5 66.1667,415.5 63.5,415.5C 63.5,410.167 63.5,404.833 63.5,399.5C 60.8333,399.5 58.1667,399.5 55.5,399.5C 55.8235,392.978 55.4902,386.645 54.5,380.5C 55.8333,378.5 57.5,376.833 59.5,375.5 Z"/></g>
<g><path style="opacity:1" fill="#fdd91e" d="M 54.5,380.5 C 55.4902,386.645 55.8235,392.978 55.5,399.5C 58.1667,399.5 60.8333,399.5 63.5,399.5C 63.5,404.833 63.5,410.167 63.5,415.5C 62.7611,415.631 62.0944,415.464 61.5,415C 60.2062,412.913 59.0395,410.746 58,408.5C 57.3292,407.748 56.4959,407.414 55.5,407.5C 55.4248,404.593 54.5914,401.927 53,399.5C 52.258,402.657 50.758,405.323 48.5,407.5C 47.8333,410.167 47.1667,412.833 46.5,415.5C 45.7918,409.813 45.1251,404.146 44.5,398.5C 46.7381,395.567 47.7381,395.901 47.5,399.5C 48.675,399.719 49.675,399.386 50.5,398.5C 48.9802,396.338 47.9802,394.005 47.5,391.5C 46.5,391.5 45.5,391.5 44.5,391.5C 44.67,392.822 44.3366,393.989 43.5,395C 40.3515,395.738 37.6848,397.238 35.5,399.5C 38.4341,394.731 42.2674,390.731 47,387.5C 47.21,385.942 47.71,384.609 48.5,383.5C 50.9468,383.385 52.9468,382.385 54.5,380.5 Z"/></g>
<g><path style="opacity:1" fill="#fdd332" d="M 319.5,395.5 C 319.5,398.5 319.5,401.5 319.5,404.5C 316.09,404.616 314.756,402.95 315.5,399.5C 312.15,399.665 308.817,399.498 305.5,399C 303.771,397.211 303.104,395.044 303.5,392.5C 302.127,392.343 300.793,392.51 299.5,393C 298.794,395.714 297.461,397.881 295.5,399.5C 295.5,395.5 295.5,391.5 295.5,387.5C 298.167,387.5 300.833,387.5 303.5,387.5C 303.328,389.492 303.995,391.158 305.5,392.5C 305.167,393.167 304.833,393.833 304.5,394.5C 306.549,397.147 309.216,397.981 312.5,397C 314.377,394.318 316.71,393.818 319.5,395.5 Z"/></g>
<g><path style="opacity:1" fill="#fdd120" d="M 135.5,388.5 C 137.067,389.681 137.901,391.347 138,393.5C 142.242,397.065 144.075,401.731 143.5,407.5C 146.14,407.046 148.473,405.879 150.5,404C 151.227,402.601 151.727,401.101 152,399.5C 153.781,403.395 155.281,407.395 156.5,411.5C 155.776,414.827 155.61,418.161 156,421.5C 157.011,422.337 158.178,422.67 159.5,422.5C 159.5,425.5 159.5,428.5 159.5,431.5C 160.5,431.5 161.5,431.5 162.5,431.5C 162.575,434.206 162.908,436.873 163.5,439.5C 166.325,439.081 168.491,440.081 170,442.5C 170.424,444.976 171.257,447.309 172.5,449.5C 172.019,452.314 170.352,453.648 167.5,453.5C 167.181,455.75 167.681,457.75 169,459.5C 171.167,458 171,456.833 168.5,456C 170.929,455.297 173.262,455.463 175.5,456.5C 175.5,457.167 175.5,457.833 175.5,458.5C 173.227,461.777 170.56,464.777 167.5,467.5C 164.833,468.167 163.167,469.833 162.5,472.5C 162.167,472.5 161.833,472.5 161.5,472.5C 159.254,473.455 156.921,474.122 154.5,474.5C 154.371,476.216 154.038,477.883 153.5,479.5C 148.833,479.5 144.167,479.5 139.5,479.5C 138.001,469.834 136.501,460.167 135,450.5C 131.607,442.022 128.44,433.355 125.5,424.5C 123.604,423.534 121.604,423.201 119.5,423.5C 118.35,428.405 115.684,429.405 111.5,426.5C 111.5,424.167 111.5,421.833 111.5,419.5C 111.169,411.804 111.503,404.138 112.5,396.5C 117.284,399.068 119.784,403.068 120,408.5C 121.579,412.81 123.746,416.81 126.5,420.5C 127.496,414.202 127.83,407.868 127.5,401.5C 130.025,400.36 132.692,399.693 135.5,399.5C 135.5,395.833 135.5,392.167 135.5,388.5 Z"/></g>
<g><path style="opacity:1" fill="#fddc1e" d="M 55.5,407.5 C 55.5,408.5 55.5,409.5 55.5,410.5C 52.1746,410.494 49.8413,411.994 48.5,415C 50.1341,415.494 51.8008,415.66 53.5,415.5C 53.5,420.833 53.5,426.167 53.5,431.5C 54.5,431.5 55.5,431.5 56.5,431.5C 55.697,436.476 52.8636,439.809 48,441.5C 47.6667,442.833 47.3333,444.167 47,445.5C 43.683,442.87 41.3497,439.537 40,435.5C 39.51,436.793 39.3433,438.127 39.5,439.5C 37.4924,438.384 36.4924,436.551 36.5,434C 36.7549,432.674 37.4216,431.674 38.5,431C 36.3624,428.525 34.1958,426.025 32,423.5C 31.8166,418.797 29.8166,415.13 26,412.5C 24.5861,413.413 23.0861,413.413 21.5,412.5C 23.863,409.146 26.863,406.48 30.5,404.5C 31.3094,402.929 31.6427,401.262 31.5,399.5C 32.8333,399.5 34.1667,399.5 35.5,399.5C 37.6848,397.238 40.3515,395.738 43.5,395C 44.3366,393.989 44.67,392.822 44.5,391.5C 45.5,391.5 46.5,391.5 47.5,391.5C 47.9802,394.005 48.9802,396.338 50.5,398.5C 49.675,399.386 48.675,399.719 47.5,399.5C 47.7381,395.901 46.7381,395.567 44.5,398.5C 45.1251,404.146 45.7918,409.813 46.5,415.5C 47.1667,412.833 47.8333,410.167 48.5,407.5C 50.758,405.323 52.258,402.657 53,399.5C 54.5914,401.927 55.4248,404.593 55.5,407.5 Z"/></g>
<g><path style="opacity:1" fill="#fdd834" d="M 319.5,404.5 C 319.5,417.167 319.5,429.833 319.5,442.5C 314.759,442.779 311.593,445.113 310,449.5C 309.329,450.252 308.496,450.586 307.5,450.5C 305.88,449.159 304.88,447.326 304.5,445C 302.555,445.128 300.722,444.962 299,444.5C 298.194,441.554 296.861,438.888 295,436.5C 293.955,437.373 293.122,438.373 292.5,439.5C 290.833,439.5 289.167,439.5 287.5,439.5C 286.5,439.5 285.5,439.5 284.5,439.5C 284.425,436.794 284.092,434.127 283.5,431.5C 282.178,431.67 281.011,431.337 280,430.5C 279.503,428.19 279.337,425.857 279.5,423.5C 278.5,423.5 277.5,423.5 276.5,423.5C 276.833,426.167 277.167,428.833 277.5,431.5C 275.876,431.64 274.71,430.973 274,429.5C 272.164,431.604 269.998,431.938 267.5,430.5C 266.93,426.666 264.93,423.999 261.5,422.5C 259.98,420.338 258.98,418.005 258.5,415.5C 255.554,417.64 252.22,419.307 248.5,420.5C 246.244,419.579 245.244,417.912 245.5,415.5C 247.446,410.604 248.113,405.271 247.5,399.5C 250.603,399.343 253.269,398.509 255.5,397C 257.768,398.558 258.934,400.724 259,403.5C 260.079,405.394 261.413,405.727 263,404.5C 264.266,413.368 267.766,414.535 273.5,408C 271.679,405.544 271.012,402.711 271.5,399.5C 273.527,399.338 275.527,399.505 277.5,400C 279.797,402.463 281.463,405.297 282.5,408.5C 283.85,409.95 285.516,410.617 287.5,410.5C 287.5,409.5 287.5,408.5 287.5,407.5C 290.206,407.425 292.873,407.092 295.5,406.5C 295.5,404.167 295.5,401.833 295.5,399.5C 297.461,397.881 298.794,395.714 299.5,393C 300.793,392.51 302.127,392.343 303.5,392.5C 303.104,395.044 303.771,397.211 305.5,399C 308.817,399.498 312.15,399.665 315.5,399.5C 314.756,402.95 316.09,404.616 319.5,404.5 Z"/></g>
<g><path style="opacity:1" fill="#fdcf29" d="M 243.5,391.5 C 243.918,392.222 244.584,392.722 245.5,393C 241.972,394.516 238.972,396.683 236.5,399.5C 237.407,395.593 239.74,392.926 243.5,391.5 Z"/></g>
<g><path style="opacity:1" fill="#fddd20" d="M 55.5,407.5 C 56.4959,407.414 57.3292,407.748 58,408.5C 59.0395,410.746 60.2062,412.913 61.5,415C 62.0944,415.464 62.7611,415.631 63.5,415.5C 63.4021,419.25 64.5688,422.583 67,425.5C 69.5173,435.669 72.5173,445.669 76,455.5C 77,454.167 78,452.833 79,451.5C 79.7412,452.641 80.5745,452.641 81.5,451.5C 82.4287,450.311 82.762,448.978 82.5,447.5C 80.1667,447.5 77.8333,447.5 75.5,447.5C 75.5,442.167 75.5,436.833 75.5,431.5C 74.1667,431.5 72.8333,431.5 71.5,431.5C 71.5,426.167 71.5,420.833 71.5,415.5C 74.1028,417.78 76.4362,420.447 78.5,423.5C 81.8914,437.845 85.3914,452.178 89,466.5C 89.499,470.821 89.6657,475.154 89.5,479.5C 78.1667,479.5 66.8333,479.5 55.5,479.5C 55.5,478.167 55.5,476.833 55.5,475.5C 52.5,475.833 51.1667,474.5 51.5,471.5C 50.325,471.719 49.325,471.386 48.5,470.5C 47.6805,468.026 46.6805,465.693 45.5,463.5C 47.369,461.365 48.0356,458.698 47.5,455.5C 46.1667,455.5 44.8333,455.5 43.5,455.5C 43.0022,452.513 42.5022,449.513 42,446.5C 41.5831,445.244 40.7498,444.577 39.5,444.5C 39.5,442.833 39.5,441.167 39.5,439.5C 39.3433,438.127 39.51,436.793 40,435.5C 41.3497,439.537 43.683,442.87 47,445.5C 47.3333,444.167 47.6667,442.833 48,441.5C 52.8636,439.809 55.697,436.476 56.5,431.5C 55.5,431.5 54.5,431.5 53.5,431.5C 53.5,426.167 53.5,420.833 53.5,415.5C 51.8008,415.66 50.1341,415.494 48.5,415C 49.8413,411.994 52.1746,410.494 55.5,410.5C 55.5,409.5 55.5,408.5 55.5,407.5 Z"/></g>
<g><path style="opacity:1" fill="#fddd2f" d="M 231.5,414.5 C 232.568,415.434 233.901,415.768 235.5,415.5C 236.213,419.727 234.546,422.394 230.5,423.5C 229.573,421.887 228.739,420.221 228,418.5C 227.667,422.833 227.333,427.167 227,431.5C 226.185,433.623 225.185,435.623 224,437.5C 222.122,435.957 220.622,434.124 219.5,432C 217.109,431.713 214.776,431.213 212.5,430.5C 212.264,431.247 211.93,432.08 211.5,433C 211.879,435.188 213.046,437.355 215,439.5C 220.066,442.919 224.4,447.585 228,453.5C 230.5,455.667 233,457.833 235.5,460C 234.044,460.423 233.544,461.256 234,462.5C 242.158,465.788 246.991,471.455 248.5,479.5C 234.833,479.5 221.167,479.5 207.5,479.5C 207.506,472.455 206.339,465.788 204,459.5C 202.287,458.122 200.953,456.455 200,454.5C 198.25,457.246 197.25,460.246 197,463.5C 196.833,460.833 196.667,458.167 196.5,455.5C 200.247,448.728 198.58,444.728 191.5,443.5C 196.791,438.175 202.124,432.842 207.5,427.5C 208.873,427.657 210.207,427.49 211.5,427C 217.443,420.289 223.276,415.123 229,411.5C 229.236,413.119 230.069,414.119 231.5,414.5 Z"/></g>
<g><path style="opacity:1" fill="#fddd35" d="M 245.5,415.5 C 245.244,417.912 246.244,419.579 248.5,420.5C 252.22,419.307 255.554,417.64 258.5,415.5C 258.98,418.005 259.98,420.338 261.5,422.5C 264.93,423.999 266.93,426.666 267.5,430.5C 269.998,431.938 272.164,431.604 274,429.5C 274.71,430.973 275.876,431.64 277.5,431.5C 277.167,428.833 276.833,426.167 276.5,423.5C 277.5,423.5 278.5,423.5 279.5,423.5C 279.337,425.857 279.503,428.19 280,430.5C 281.011,431.337 282.178,431.67 283.5,431.5C 284.092,434.127 284.425,436.794 284.5,439.5C 285.5,439.5 286.5,439.5 287.5,439.5C 287.5,444.833 287.5,450.167 287.5,455.5C 286.022,455.238 284.689,455.571 283.5,456.5C 282.833,457.833 281.833,458.833 280.5,459.5C 278.175,455.675 276.341,451.675 275,447.5C 271.755,452.242 270.588,457.576 271.5,463.5C 269.5,463.5 267.5,463.5 265.5,463.5C 265.5,466.167 265.5,468.833 265.5,471.5C 261.76,471.759 258.094,471.426 254.5,470.5C 253.522,470.977 252.689,471.643 252,472.5C 251.282,471.549 250.449,471.383 249.5,472C 251.832,474.306 253.832,476.806 255.5,479.5C 253.167,479.5 250.833,479.5 248.5,479.5C 246.991,471.455 242.158,465.788 234,462.5C 233.544,461.256 234.044,460.423 235.5,460C 233,457.833 230.5,455.667 228,453.5C 224.4,447.585 220.066,442.919 215,439.5C 213.046,437.355 211.879,435.188 211.5,433C 211.93,432.08 212.264,431.247 212.5,430.5C 214.776,431.213 217.109,431.713 219.5,432C 220.622,434.124 222.122,435.957 224,437.5C 225.185,435.623 226.185,433.623 227,431.5C 227.333,427.167 227.667,422.833 228,418.5C 228.739,420.221 229.573,421.887 230.5,423.5C 234.546,422.394 236.213,419.727 235.5,415.5C 233.901,415.768 232.568,415.434 231.5,414.5C 232.363,413.06 232.363,411.726 231.5,410.5C 232.167,409.5 232.833,408.5 233.5,407.5C 236.375,408.344 239.375,408.344 242.5,407.5C 242.5,410.167 242.5,412.833 242.5,415.5C 243.5,415.5 244.5,415.5 245.5,415.5 Z"/></g>
<g><path style="opacity:1" fill="#fee11f" d="M 21.5,412.5 C 23.0861,413.413 24.5861,413.413 26,412.5C 29.8166,415.13 31.8166,418.797 32,423.5C 34.1958,426.025 36.3624,428.525 38.5,431C 37.4216,431.674 36.7549,432.674 36.5,434C 36.4924,436.551 37.4924,438.384 39.5,439.5C 39.5,441.167 39.5,442.833 39.5,444.5C 39.6641,447.187 39.4974,449.854 39,452.5C 37.2157,448.988 35.7157,445.321 34.5,441.5C 33.675,440.614 32.675,440.281 31.5,440.5C 31.6602,438.801 31.4935,437.134 31,435.5C 27.8827,428.246 24.0494,421.579 19.5,415.5C 19.427,413.973 20.0937,412.973 21.5,412.5 Z"/></g>
<g><path style="opacity:1" fill="#fddf1e" d="M 19.5,415.5 C 24.0494,421.579 27.8827,428.246 31,435.5C 31.4935,437.134 31.6602,438.801 31.5,440.5C 32.675,440.281 33.675,440.614 34.5,441.5C 35.7157,445.321 37.2157,448.988 39,452.5C 39.4974,449.854 39.6641,447.187 39.5,444.5C 40.7498,444.577 41.5831,445.244 42,446.5C 42.5022,449.513 43.0022,452.513 43.5,455.5C 44.8333,455.5 46.1667,455.5 47.5,455.5C 48.0356,458.698 47.369,461.365 45.5,463.5C 43.5,463.5 41.5,463.5 39.5,463.5C 38.3389,460.51 36.6723,457.843 34.5,455.5C 33.5721,448.053 30.5721,441.719 25.5,436.5C 23.974,434.55 22.974,432.217 22.5,429.5C 20.0509,426.239 17.3842,423.239 14.5,420.5C 14.8333,419.833 15.1667,419.167 15.5,418.5C 15.5,417.5 15.5,416.5 15.5,415.5C 16.8333,415.5 18.1667,415.5 19.5,415.5 Z"/></g>
<g><path style="opacity:1" fill="#fddb1e" d="M 63.5,415.5 C 66.1667,415.5 68.8333,415.5 71.5,415.5C 71.5,420.833 71.5,426.167 71.5,431.5C 72.8333,431.5 74.1667,431.5 75.5,431.5C 75.5,436.833 75.5,442.167 75.5,447.5C 77.8333,447.5 80.1667,447.5 82.5,447.5C 82.762,448.978 82.4287,450.311 81.5,451.5C 80.5745,452.641 79.7412,452.641 79,451.5C 78,452.833 77,454.167 76,455.5C 72.5173,445.669 69.5173,435.669 67,425.5C 64.5688,422.583 63.4021,419.25 63.5,415.5 Z"/></g>
<g><path style="opacity:1" fill="#f8c820" d="M 232.5,401.5 C 224.167,410.167 215.833,418.833 207.5,427.5C 206.5,427.5 205.5,427.5 204.5,427.5C 204.833,426.5 205.5,425.833 206.5,425.5C 210.966,420.406 216.466,414.739 223,408.5C 223.333,408.833 223.667,409.167 224,409.5C 226.067,406.891 228.234,404.391 230.5,402C 231.094,401.536 231.761,401.369 232.5,401.5 Z"/></g>
<g><path style="opacity:1" fill="#fdd717" d="M 15.5,418.5 C 15.1667,419.167 14.8333,419.833 14.5,420.5C 10.6915,425.894 5.69146,429.56 -0.5,431.5C -0.5,428.167 -0.5,424.833 -0.5,421.5C 0.895511,424.05 3.06218,425.717 6,426.5C 8.69549,424.801 10.6955,422.468 12,419.5C 12.3333,419.833 12.6667,420.167 13,420.5C 13.4169,419.244 14.2502,418.577 15.5,418.5 Z"/></g>
<g><path style="opacity:1" fill="#fee31f" d="M 14.5,420.5 C 17.3842,423.239 20.0509,426.239 22.5,429.5C 22.974,432.217 23.974,434.55 25.5,436.5C 25.188,442.879 24.5214,449.212 23.5,455.5C 27.2116,454.582 30.8782,454.582 34.5,455.5C 36.6723,457.843 38.3389,460.51 39.5,463.5C 41.5,463.5 43.5,463.5 45.5,463.5C 46.6805,465.693 47.6805,468.026 48.5,470.5C 49.325,471.386 50.325,471.719 51.5,471.5C 51.1667,474.5 52.5,475.833 55.5,475.5C 55.5,476.833 55.5,478.167 55.5,479.5C 38.8333,479.5 22.1667,479.5 5.5,479.5C 5.66615,473.491 5.49949,467.491 5,461.5C 3.61812,459.558 1.78479,458.225 -0.5,457.5C -0.5,448.833 -0.5,440.167 -0.5,431.5C 5.69146,429.56 10.6915,425.894 14.5,420.5 Z"/></g>
<g><path style="opacity:1" fill="#fee11e" d="M 25.5,436.5 C 30.5721,441.719 33.5721,448.053 34.5,455.5C 30.8782,454.582 27.2116,454.582 23.5,455.5C 24.5214,449.212 25.188,442.879 25.5,436.5 Z"/></g>
<g><path style="opacity:1" fill="#fedd3a" d="M 287.5,439.5 C 289.167,439.5 290.833,439.5 292.5,439.5C 294.982,441.503 295.982,444.169 295.5,447.5C 298.167,447.5 300.833,447.5 303.5,447.5C 303.171,453.537 303.504,459.537 304.5,465.5C 305.167,464.833 305.833,464.167 306.5,463.5C 307.492,459.217 307.826,454.884 307.5,450.5C 308.496,450.586 309.329,450.252 310,449.5C 311.593,445.113 314.759,442.779 319.5,442.5C 319.5,444.167 319.5,445.833 319.5,447.5C 318.167,447.5 316.833,447.5 315.5,447.5C 315.5,450.167 315.5,452.833 315.5,455.5C 316.833,455.5 318.167,455.5 319.5,455.5C 319.5,463.5 319.5,471.5 319.5,479.5C 304.167,479.5 288.833,479.5 273.5,479.5C 273.5,476.833 273.5,474.167 273.5,471.5C 272.5,471.5 271.5,471.5 270.5,471.5C 270.5,474.833 268.833,476.5 265.5,476.5C 265.5,474.833 265.5,473.167 265.5,471.5C 265.5,468.833 265.5,466.167 265.5,463.5C 267.5,463.5 269.5,463.5 271.5,463.5C 270.588,457.576 271.755,452.242 275,447.5C 276.341,451.675 278.175,455.675 280.5,459.5C 281.833,458.833 282.833,457.833 283.5,456.5C 284.689,455.571 286.022,455.238 287.5,455.5C 287.5,450.167 287.5,444.833 287.5,439.5 Z"/></g>
<g><path style="opacity:1" fill="#f9cf21" d="M 204.5,427.5 C 205.5,427.5 206.5,427.5 207.5,427.5C 202.124,432.842 196.791,438.175 191.5,443.5C 191.5,443.833 191.5,444.167 191.5,444.5C 186.874,447.458 182.874,451.124 179.5,455.5C 178.167,456.5 176.833,457.5 175.5,458.5C 175.5,457.833 175.5,457.167 175.5,456.5C 178.389,453.451 181.555,450.451 185,447.5C 186.009,445.975 186.509,444.308 186.5,442.5C 189.358,442.405 191.691,441.238 193.5,439C 196.697,434.638 200.363,430.805 204.5,427.5 Z"/></g>
<g><path style="opacity:1" fill="#fde230" d="M 191.5,443.5 C 198.58,444.728 200.247,448.728 196.5,455.5C 196.667,458.167 196.833,460.833 197,463.5C 197.25,460.246 198.25,457.246 200,454.5C 200.953,456.455 202.287,458.122 204,459.5C 206.339,465.788 207.506,472.455 207.5,479.5C 190.167,479.5 172.833,479.5 155.5,479.5C 157.055,476.738 159.055,474.404 161.5,472.5C 161.833,472.5 162.167,472.5 162.5,472.5C 164.5,471.167 166.167,469.5 167.5,467.5C 170.56,464.777 173.227,461.777 175.5,458.5C 176.833,457.5 178.167,456.5 179.5,455.5C 180.496,455.414 181.329,455.748 182,456.5C 183.413,454.586 185.247,453.253 187.5,452.5C 189.288,450.424 190.954,448.257 192.5,446C 191.944,445.617 191.611,445.117 191.5,444.5C 191.5,444.167 191.5,443.833 191.5,443.5 Z"/></g>
<g><path style="opacity:1" fill="#fede2d" d="M 191.5,444.5 C 191.611,445.117 191.944,445.617 192.5,446C 190.954,448.257 189.288,450.424 187.5,452.5C 185.247,453.253 183.413,454.586 182,456.5C 181.329,455.748 180.496,455.414 179.5,455.5C 182.874,451.124 186.874,447.458 191.5,444.5 Z"/></g>
<g><path style="opacity:1" fill="#fedb37" d="M 307.5,450.5 C 307.826,454.884 307.492,459.217 306.5,463.5C 305.833,464.167 305.167,464.833 304.5,465.5C 303.504,459.537 303.171,453.537 303.5,447.5C 300.833,447.5 298.167,447.5 295.5,447.5C 295.982,444.169 294.982,441.503 292.5,439.5C 293.122,438.373 293.955,437.373 295,436.5C 296.861,438.888 298.194,441.554 299,444.5C 300.722,444.962 302.555,445.128 304.5,445C 304.88,447.326 305.88,449.159 307.5,450.5 Z"/></g>
<g><path style="opacity:1" fill="#fdda3a" d="M 319.5,447.5 C 319.5,450.167 319.5,452.833 319.5,455.5C 318.167,455.5 316.833,455.5 315.5,455.5C 315.5,452.833 315.5,450.167 315.5,447.5C 316.833,447.5 318.167,447.5 319.5,447.5 Z"/></g>
<g><path style="opacity:1" fill="#fee71f" d="M -0.5,457.5 C 1.78479,458.225 3.61812,459.558 5,461.5C 5.49949,467.491 5.66615,473.491 5.5,479.5C 3.5,479.5 1.5,479.5 -0.5,479.5C -0.5,472.167 -0.5,464.833 -0.5,457.5 Z"/></g>
<g><path style="opacity:1" fill="#fddb20" d="M 103.5,479.5 C 100.833,479.5 98.1667,479.5 95.5,479.5C 95.5,474.167 95.5,468.833 95.5,463.5C 98.1667,463.5 100.833,463.5 103.5,463.5C 103.5,468.833 103.5,474.167 103.5,479.5 Z"/></g>
<g><path style="opacity:1" fill="#fdd928" d="M 167.5,467.5 C 166.167,469.5 164.5,471.167 162.5,472.5C 163.167,469.833 164.833,468.167 167.5,467.5 Z"/></g>
<g><path style="opacity:1" fill="#fde139" d="M 265.5,471.5 C 265.5,473.167 265.5,474.833 265.5,476.5C 268.833,476.5 270.5,474.833 270.5,471.5C 271.5,471.5 272.5,471.5 273.5,471.5C 273.5,474.167 273.5,476.833 273.5,479.5C 267.5,479.5 261.5,479.5 255.5,479.5C 253.832,476.806 251.832,474.306 249.5,472C 250.449,471.383 251.282,471.549 252,472.5C 252.689,471.643 253.522,470.977 254.5,470.5C 258.094,471.426 261.76,471.759 265.5,471.5 Z"/></g>
<g><path style="opacity:1" fill="#f8d422" d="M 161.5,472.5 C 159.055,474.404 157.055,476.738 155.5,479.5C 154.833,479.5 154.167,479.5 153.5,479.5C 154.038,477.883 154.371,476.216 154.5,474.5C 156.921,474.122 159.254,473.455 161.5,472.5 Z"/></g>
</svg>
